<svg fill="none" height="498" viewBox="0 0 945 498" width="945" xmlns="http://www.w3.org/2000/svg"><path d="m888 113h-872" stroke="#b3b3b3" stroke-dasharray="8 8" stroke-width="2"/><path d="m888 401h-872" stroke="#b3b3b3" stroke-dasharray="8 8" stroke-width="2"/><g font-family="'Atkinson Hyperlegible Mono',monospace" font-size="23.91" letter-spacing="0em"><text fill="#2a2934"><tspan x="30.464" y="57.5914">Spend data</tspan></text><text fill="#2a2934"><tspan x="15.3568" y="185.591">In-between 1</tspan></text><text fill="#2a2934"><tspan x=".249619" y="347.591">In-between n-1</tspan></text><text fill="#2a2934"><tspan x="512.339" y="257.591">...</tspan></text><text fill="#de54da" transform="matrix(0 1 -1 0 127 233)"><tspan x=".339205" y="21.5914">...</tspan></text><text fill="#2a2934"><tspan x="22.4104" y="463.591">Income data</tspan></text><text fill="#032f62" xml:space="preserve"><tspan x="369.965" y="21.5914">"mnu"</tspan><tspan x="762.752" y="21.5914">"15/16" </tspan><tspan x="369.965" y="49.5914">"chl"</tspan><tspan x="762.752" y="49.5914">"15/16"</tspan><tspan x="369.965" y="77.5914">"liv"</tspan><tspan x="762.752" y="77.5914">"15/16" </tspan></text><text fill="#005cc5"><tspan x="279.322" y="21.5914">team</tspan><tspan x="475.715" y="21.5914">stat</tspan><tspan x="566.358" y="21.5914">156</tspan><tspan x="641.894" y="21.5914">season</tspan><tspan x="279.322" y="49.5914">team</tspan><tspan x="475.715" y="49.5914">stat</tspan><tspan x="566.358" y="49.5914">96</tspan><tspan x="641.894" y="49.5914">season</tspan><tspan x="279.322" y="77.5914">team</tspan><tspan x="475.715" y="77.5914">stat</tspan><tspan x="566.358" y="77.5914">126</tspan><tspan x="641.894" y="77.5914">season</tspan></text><text fill="#aaa8a8" xml:space="preserve"><tspan x="234" y="21.5914">[{ </tspan><tspan x="339.75" y="21.5914">: </tspan><tspan x="445.501" y="21.5914">, </tspan><tspan x="536.144" y="21.5914">: </tspan><tspan x="611.68" y="21.5914">, </tspan><tspan x="732.538" y="21.5914">: </tspan><tspan x="883.609" y="21.5914">}, </tspan><tspan x="234" y="49.5914"> { </tspan><tspan x="339.75" y="49.5914">: </tspan><tspan x="445.501" y="49.5914">, </tspan><tspan x="536.144" y="49.5914">: </tspan><tspan x="596.573" y="49.5914">,  </tspan><tspan x="732.538" y="49.5914">: </tspan><tspan x="868.502" y="49.5914"> }, </tspan><tspan x="234" y="77.5914"> { </tspan><tspan x="339.75" y="77.5914">: </tspan><tspan x="445.501" y="77.5914">, </tspan><tspan x="536.144" y="77.5914">: </tspan><tspan x="611.68" y="77.5914">, </tspan><tspan x="732.538" y="77.5914">: </tspan><tspan x="883.609" y="77.5914">}]</tspan></text><text fill="#032f62" xml:space="preserve"><tspan x="369.965" y="145.591">"mnu"</tspan><tspan x="792.966" y="145.591">"15/16" </tspan><tspan x="369.965" y="173.591">"chl"</tspan><tspan x="792.966" y="173.591">"15/16"</tspan><tspan x="369.965" y="201.591">"liv"</tspan><tspan x="792.966" y="201.591">"15/16" </tspan></text><text fill="#005cc5"><tspan x="279.322" y="145.591">team</tspan><tspan x="475.715" y="145.591">stat</tspan><tspan x="566.358" y="145.591">150.5</tspan><tspan x="672.109" y="145.591">season</tspan><tspan x="279.322" y="173.591">team</tspan><tspan x="475.715" y="173.591">stat</tspan><tspan x="566.358" y="173.591">91.5</tspan><tspan x="672.109" y="173.591">season</tspan><tspan x="279.322" y="201.591">team</tspan><tspan x="475.715" y="201.591">stat</tspan><tspan x="566.358" y="201.591">122.5</tspan><tspan x="672.109" y="201.591">season</tspan></text><text fill="#aaa8a8" xml:space="preserve"><tspan x="234" y="145.591">[{ </tspan><tspan x="339.75" y="145.591">: </tspan><tspan x="445.501" y="145.591">, </tspan><tspan x="536.144" y="145.591">: </tspan><tspan x="641.894" y="145.591">, </tspan><tspan x="762.752" y="145.591">: </tspan><tspan x="913.824" y="145.591">}, </tspan><tspan x="234" y="173.591"> { </tspan><tspan x="339.75" y="173.591">: </tspan><tspan x="445.501" y="173.591">, </tspan><tspan x="536.144" y="173.591">: </tspan><tspan x="626.787" y="173.591">,  </tspan><tspan x="762.752" y="173.591">: </tspan><tspan x="898.717" y="173.591"> }, </tspan><tspan x="234" y="201.591"> { </tspan><tspan x="339.75" y="201.591">: </tspan><tspan x="445.501" y="201.591">, </tspan><tspan x="536.144" y="201.591">: </tspan><tspan x="641.894" y="201.591">, </tspan><tspan x="762.752" y="201.591">: </tspan><tspan x="913.824" y="201.591">}]</tspan></text><text fill="#032f62" xml:space="preserve"><tspan x="369.965" y="311.591">"mnu"</tspan><tspan x="792.966" y="311.591">"15/16" </tspan><tspan x="369.965" y="339.591">"chl"</tspan><tspan x="792.966" y="339.591">"15/16"</tspan><tspan x="369.965" y="367.591">"liv"</tspan><tspan x="792.966" y="367.591">"15/16" </tspan></text><text fill="#005cc5"><tspan x="279.322" y="311.591">team</tspan><tspan x="475.715" y="311.591">stat</tspan><tspan x="566.358" y="311.591">106.5</tspan><tspan x="672.109" y="311.591">season</tspan><tspan x="279.322" y="339.591">team</tspan><tspan x="475.715" y="339.591">stat</tspan><tspan x="566.358" y="339.591">87.9</tspan><tspan x="672.109" y="339.591">season</tspan><tspan x="279.322" y="367.591">team</tspan><tspan x="475.715" y="367.591">stat</tspan><tspan x="566.358" y="367.591">94.5</tspan><tspan x="672.109" y="367.591">season</tspan></text><text fill="#aaa8a8" xml:space="preserve"><tspan x="234" y="311.591">[{ </tspan><tspan x="339.75" y="311.591">: </tspan><tspan x="445.501" y="311.591">, </tspan><tspan x="536.144" y="311.591">: </tspan><tspan x="641.894" y="311.591">, </tspan><tspan x="762.752" y="311.591">: </tspan><tspan x="913.824" y="311.591">}, </tspan><tspan x="234" y="339.591"> { </tspan><tspan x="339.75" y="339.591">: </tspan><tspan x="445.501" y="339.591">, </tspan><tspan x="536.144" y="339.591">: </tspan><tspan x="626.787" y="339.591">,  </tspan><tspan x="762.752" y="339.591">: </tspan><tspan x="898.717" y="339.591"> }, </tspan><tspan x="234" y="367.591"> { </tspan><tspan x="339.75" y="367.591">: </tspan><tspan x="445.501" y="367.591">, </tspan><tspan x="536.144" y="367.591">: </tspan><tspan x="626.787" y="367.591">,  </tspan><tspan x="762.752" y="367.591">: </tspan><tspan x="913.824" y="367.591">}]</tspan></text><text fill="#032f62" xml:space="preserve"><tspan x="369.965" y="435.591">"mnu"</tspan><tspan x="762.752" y="435.591">"15/16" </tspan><tspan x="369.965" y="463.591">"chl"</tspan><tspan x="762.752" y="463.591">"15/16"</tspan><tspan x="369.965" y="491.591">"liv"</tspan><tspan x="762.752" y="491.591">"15/16  </tspan></text><text fill="#005cc5"><tspan x="279.322" y="435.591">team</tspan><tspan x="475.715" y="435.591">stat</tspan><tspan x="566.358" y="435.591">101</tspan><tspan x="641.894" y="435.591">season</tspan><tspan x="279.322" y="463.591">team</tspan><tspan x="475.715" y="463.591">stat</tspan><tspan x="566.358" y="463.591">87</tspan><tspan x="641.894" y="463.591">season</tspan><tspan x="279.322" y="491.591">team</tspan><tspan x="475.715" y="491.591">stat</tspan><tspan x="566.358" y="491.591">91</tspan><tspan x="641.894" y="491.591">season</tspan></text><text fill="#aaa8a8" xml:space="preserve"><tspan x="234" y="435.591">[{ </tspan><tspan x="339.75" y="435.591">: </tspan><tspan x="445.501" y="435.591">, </tspan><tspan x="536.144" y="435.591">: </tspan><tspan x="611.68" y="435.591">, </tspan><tspan x="732.538" y="435.591">: </tspan><tspan x="883.609" y="435.591">}, </tspan><tspan x="234" y="463.591"> { </tspan><tspan x="339.75" y="463.591">: </tspan><tspan x="445.501" y="463.591">, </tspan><tspan x="536.144" y="463.591">: </tspan><tspan x="596.573" y="463.591">,  </tspan><tspan x="732.538" y="463.591">: </tspan><tspan x="868.502" y="463.591"> }, </tspan><tspan x="234" y="491.591"> { </tspan><tspan x="339.75" y="491.591">: </tspan><tspan x="445.501" y="491.591">, </tspan><tspan x="536.144" y="491.591">: </tspan><tspan x="596.573" y="491.591">,  </tspan><tspan x="732.538" y="491.591">: </tspan><tspan x="883.609" y="491.591">}]</tspan></text></g><path d="m105.293 154.707c.39.391 1.024.391 1.414 0l6.364-6.364c.391-.39.391-1.024 0-1.414-.39-.391-1.024-.391-1.414 0l-5.657 5.657-5.657-5.657c-.3904-.391-1.0235-.391-1.4141 0-.3905.39-.3905 1.024 0 1.414zm.707-80.707h-1v80h1 1v-80z" fill="#de54da"/><path d="m105.293 434.707c.39.391 1.024.391 1.414 0l6.364-6.364c.391-.39.391-1.024 0-1.414-.39-.391-1.024-.391-1.414 0l-5.657 5.657-5.657-5.657c-.3904-.391-1.0235-.391-1.4141 0-.3905.39-.3905 1.024 0 1.414zm.707-70.707h-1v70h1 1v-70z" fill="#de54da"/><path d="m105.293 316.707c.39.391 1.024.391 1.414 0l6.364-6.364c.391-.39.391-1.024 0-1.414-.39-.391-1.024-.391-1.414 0l-5.657 5.657-5.657-5.657c-.3904-.391-1.0235-.391-1.4141 0-.3905.39-.3905 1.024 0 1.414zm.707-35.707h-1v35h1 1v-35z" fill="#de54da"/><path d="m106 202v27" stroke="#de54da" stroke-width="2"/></svg>
