<svg width="1569" height="610" viewBox="0 0 1569 610" fill="none" xmlns="http://www.w3.org/2000/svg">
<g id="Group 23">
<line id="Line 11" x1="312" y1="-4.37114e-08" x2="312" y2="568" stroke="#B3B3B3" stroke-width="2" stroke-dasharray="8 8"/>
<line id="Line 12" x1="1263" y1="-4.37114e-08" x2="1263" y2="568" stroke="#B3B3B3" stroke-width="2" stroke-dasharray="8 8"/>
<text id="Spend data" fill="#2A2934" xml:space="preserve" style="white-space: pre" font-family="JetBrains Mono" font-size="24" letter-spacing="0em"><tspan x="72.0938" y="602.64">Spend data</tspan></text>
<text id="In-between 1" fill="#2A2934" xml:space="preserve" style="white-space: pre" font-family="JetBrains Mono" font-size="23.91" letter-spacing="0em"><tspan x="400.96" y="602.608">In-between 1</tspan></text>
<text id="In-between 2" fill="#2A2934" xml:space="preserve" style="white-space: pre" font-family="JetBrains Mono" font-size="23.91" letter-spacing="0em"><tspan x="673.96" y="602.608">In-between 2</tspan></text>
<text id="In-between n-1" fill="#2A2934" xml:space="preserve" style="white-space: pre" font-family="JetBrains Mono" font-size="23.91" letter-spacing="0em"><tspan x="1042.29" y="602.608">In-between n-1</tspan></text>
<text id="..." fill="#2A2934" xml:space="preserve" style="white-space: pre" font-family="JetBrains Mono" font-size="23.91" letter-spacing="0em"><tspan x="898.495" y="285.608">...</tspan></text>
<text id="..._2" fill="#DE54DA" xml:space="preserve" style="white-space: pre" font-family="JetBrains Mono" font-size="23.91" letter-spacing="0em"><tspan x="922.495" y="595.608">...</tspan></text>
<text id="Income data" fill="#2A2934" xml:space="preserve" style="white-space: pre" font-family="JetBrains Mono" font-size="24" letter-spacing="0em"><tspan x="1407" y="602.64">Income data</tspan></text>
<g id="[ { team: &#34;mnu&#34;, stat: 156, season: &#34;15/16&#34; }, { team: &#34;chl&#34;, stat: 96, season: &#34;15/16&#34; }, { team: &#34;liv&#34;, stat: 126, season: &#34;15/16&#34; } ]">
<text fill="#AAA8A8" xml:space="preserve" style="white-space: pre" font-family="JetBrains Mono" font-size="23.91" letter-spacing="0em"><tspan x="0" y="38.6076">[&#10;</tspan><tspan x="0" y="70.6076">  { &#10;</tspan><tspan x="0" y="102.608">    </tspan><tspan x="114.693" y="102.608">: </tspan><tspan x="215.05" y="102.608">,&#10;</tspan><tspan x="0" y="134.608">    </tspan><tspan x="114.693" y="134.608">: </tspan><tspan x="186.377" y="134.608">,&#10;</tspan><tspan x="0" y="166.608">    </tspan><tspan x="143.367" y="166.608">: </tspan><tspan x="272.397" y="166.608"> &#10;</tspan><tspan x="0" y="198.608">  },&#10;</tspan><tspan x="0" y="230.608">  { &#10;</tspan><tspan x="0" y="262.608">    </tspan><tspan x="114.693" y="262.608">: </tspan><tspan x="215.05" y="262.608">,&#10;</tspan><tspan x="0" y="294.608">    </tspan><tspan x="114.693" y="294.608">: </tspan><tspan x="172.04" y="294.608">,&#10;</tspan><tspan x="0" y="326.608">    </tspan><tspan x="143.367" y="326.608">: </tspan><tspan x="272.397" y="326.608"> &#10;</tspan><tspan x="0" y="358.608">  },&#10;</tspan><tspan x="0" y="390.608">  { &#10;</tspan><tspan x="0" y="422.608">   </tspan><tspan x="100.357" y="422.608">: </tspan><tspan x="200.713" y="422.608">,&#10;</tspan><tspan x="0" y="454.608">   </tspan><tspan x="100.357" y="454.608">: </tspan><tspan x="172.04" y="454.608">,&#10;</tspan><tspan x="0" y="486.608">   </tspan><tspan x="129.03" y="486.608">: </tspan><tspan x="0" y="518.608">  }&#10;</tspan><tspan x="0" y="550.608">]</tspan></text>
<text fill="#032F62" xml:space="preserve" style="white-space: pre" font-family="JetBrains Mono" font-size="23.91" letter-spacing="0em"><tspan x="143.367" y="102.608">&#34;mnu&#34;</tspan><tspan x="172.04" y="166.608">&#34;15/16&#34;</tspan><tspan x="143.367" y="262.608">&#34;chl&#34;</tspan><tspan x="172.04" y="326.608">&#34;15/16&#34;</tspan><tspan x="129.03" y="422.608">&#34;liv&#34;</tspan><tspan x="157.703" y="486.608">&#34;15/16&#34;&#10;</tspan></text>
<text fill="#005CC5" xml:space="preserve" style="white-space: pre" font-family="JetBrains Mono" font-size="23.91" letter-spacing="0em"><tspan x="143.367" y="134.608">156</tspan><tspan x="143.367" y="294.608">96</tspan><tspan x="129.03" y="454.608">126</tspan></text>
<text fill="#005CC5" xml:space="preserve" style="white-space: pre" font-family="JetBrains Mono" font-size="23.91" letter-spacing="0em"><tspan x="57.3466" y="102.608">team</tspan><tspan x="57.3466" y="134.608">stat</tspan><tspan x="57.3466" y="166.608">season</tspan><tspan x="57.3466" y="262.608">team</tspan><tspan x="57.3466" y="294.608">stat</tspan><tspan x="57.3466" y="326.608">season</tspan><tspan x="43.01" y="422.608">team</tspan><tspan x="43.01" y="454.608">stat</tspan><tspan x="43.01" y="486.608">season</tspan></text>
</g>
<g id="[ { team: &#34;mnu&#34;, stat: 150.5, season: &#34;15/16&#34; }, { team: &#34;chl&#34;, stat: 91.5, season: &#34;15/16&#34; }, { team: &#34;liv&#34;, stat: 122.5, season: &#34;15/16&#34; } ]">
<text fill="#AAA8A8" xml:space="preserve" style="white-space: pre" font-family="JetBrains Mono" font-size="23.91" letter-spacing="0em"><tspan x="343" y="38.6076">[&#10;</tspan><tspan x="343" y="70.6076">  { &#10;</tspan><tspan x="343" y="102.608">    </tspan><tspan x="457.693" y="102.608">: </tspan><tspan x="558.05" y="102.608">,&#10;</tspan><tspan x="343" y="134.608">    </tspan><tspan x="457.693" y="134.608">: </tspan><tspan x="558.05" y="134.608">,&#10;</tspan><tspan x="343" y="166.608">    </tspan><tspan x="486.367" y="166.608">: </tspan><tspan x="615.397" y="166.608"> &#10;</tspan><tspan x="343" y="198.608">  },&#10;</tspan><tspan x="343" y="230.608">  { &#10;</tspan><tspan x="343" y="262.608">    </tspan><tspan x="457.693" y="262.608">: </tspan><tspan x="558.05" y="262.608">,&#10;</tspan><tspan x="343" y="294.608">    </tspan><tspan x="457.693" y="294.608">: </tspan><tspan x="543.713" y="294.608">,&#10;</tspan><tspan x="343" y="326.608">    </tspan><tspan x="486.367" y="326.608">: </tspan><tspan x="615.397" y="326.608"> &#10;</tspan><tspan x="343" y="358.608">  },&#10;</tspan><tspan x="343" y="390.608">  { &#10;</tspan><tspan x="343" y="422.608">   </tspan><tspan x="443.357" y="422.608">: </tspan><tspan x="543.713" y="422.608">,&#10;</tspan><tspan x="343" y="454.608">   </tspan><tspan x="443.357" y="454.608">: </tspan><tspan x="543.713" y="454.608">,&#10;</tspan><tspan x="343" y="486.608">   </tspan><tspan x="472.03" y="486.608">: </tspan><tspan x="343" y="518.608">  }&#10;</tspan><tspan x="343" y="550.608">]</tspan></text>
<text fill="#032F62" xml:space="preserve" style="white-space: pre" font-family="JetBrains Mono" font-size="23.91" letter-spacing="0em"><tspan x="486.367" y="102.608">&#34;mnu&#34;</tspan><tspan x="515.04" y="166.608">&#34;15/16&#34;</tspan><tspan x="486.367" y="262.608">&#34;chl&#34;</tspan><tspan x="515.04" y="326.608">&#34;15/16&#34;</tspan><tspan x="472.03" y="422.608">&#34;liv&#34;</tspan><tspan x="500.703" y="486.608">&#34;15/16&#34;&#10;</tspan></text>
<text fill="#005CC5" xml:space="preserve" style="white-space: pre" font-family="JetBrains Mono" font-size="23.91" letter-spacing="0em"><tspan x="486.367" y="134.608">150.5</tspan><tspan x="486.367" y="294.608">91.5</tspan><tspan x="472.03" y="454.608">122.5</tspan></text>
<text fill="#005CC5" xml:space="preserve" style="white-space: pre" font-family="JetBrains Mono" font-size="23.91" letter-spacing="0em"><tspan x="400.347" y="102.608">team</tspan><tspan x="400.347" y="134.608">stat</tspan><tspan x="400.347" y="166.608">season</tspan><tspan x="400.347" y="262.608">team</tspan><tspan x="400.347" y="294.608">stat</tspan><tspan x="400.347" y="326.608">season</tspan><tspan x="386.01" y="422.608">team</tspan><tspan x="386.01" y="454.608">stat</tspan><tspan x="386.01" y="486.608">season</tspan></text>
</g>
<g id="[ { team: &#34;mnu&#34;, stat: 145, season: &#34;15/16&#34; }, { team: &#34;chl&#34;, stat: 94.2, season: &#34;15/16&#34; }, { team: &#34;liv&#34;, stat: 119, season: &#34;15/16&#34; } ]">
<text fill="#AAA8A8" xml:space="preserve" style="white-space: pre" font-family="JetBrains Mono" font-size="23.91" letter-spacing="0em"><tspan x="616" y="38.6076">[&#10;</tspan><tspan x="616" y="70.6076">  { &#10;</tspan><tspan x="616" y="102.608">    </tspan><tspan x="730.693" y="102.608">: </tspan><tspan x="831.05" y="102.608">,&#10;</tspan><tspan x="616" y="134.608">    </tspan><tspan x="730.693" y="134.608">: </tspan><tspan x="802.377" y="134.608">,&#10;</tspan><tspan x="616" y="166.608">    </tspan><tspan x="759.367" y="166.608">: </tspan><tspan x="888.397" y="166.608"> &#10;</tspan><tspan x="616" y="198.608">  },&#10;</tspan><tspan x="616" y="230.608">  { &#10;</tspan><tspan x="616" y="262.608">    </tspan><tspan x="730.693" y="262.608">: </tspan><tspan x="831.05" y="262.608">,&#10;</tspan><tspan x="616" y="294.608">    </tspan><tspan x="730.693" y="294.608">: </tspan><tspan x="816.713" y="294.608">,&#10;</tspan><tspan x="616" y="326.608">    </tspan><tspan x="759.367" y="326.608">: </tspan><tspan x="888.397" y="326.608"> &#10;</tspan><tspan x="616" y="358.608">  },&#10;</tspan><tspan x="616" y="390.608">  { &#10;</tspan><tspan x="616" y="422.608">   </tspan><tspan x="716.357" y="422.608">: </tspan><tspan x="816.713" y="422.608">,&#10;</tspan><tspan x="616" y="454.608">   </tspan><tspan x="716.357" y="454.608">: </tspan><tspan x="788.04" y="454.608">,&#10;</tspan><tspan x="616" y="486.608">   </tspan><tspan x="745.03" y="486.608">: </tspan><tspan x="616" y="518.608">  }&#10;</tspan><tspan x="616" y="550.608">]</tspan></text>
<text fill="#032F62" xml:space="preserve" style="white-space: pre" font-family="JetBrains Mono" font-size="23.91" letter-spacing="0em"><tspan x="759.367" y="102.608">&#34;mnu&#34;</tspan><tspan x="788.04" y="166.608">&#34;15/16&#34;</tspan><tspan x="759.367" y="262.608">&#34;chl&#34;</tspan><tspan x="788.04" y="326.608">&#34;15/16&#34;</tspan><tspan x="745.03" y="422.608">&#34;liv&#34;</tspan><tspan x="773.703" y="486.608">&#34;15/16&#34;&#10;</tspan></text>
<text fill="#005CC5" xml:space="preserve" style="white-space: pre" font-family="JetBrains Mono" font-size="23.91" letter-spacing="0em"><tspan x="759.367" y="134.608">145</tspan><tspan x="759.367" y="294.608">94.2</tspan><tspan x="745.03" y="454.608">119</tspan></text>
<text fill="#005CC5" xml:space="preserve" style="white-space: pre" font-family="JetBrains Mono" font-size="23.91" letter-spacing="0em"><tspan x="673.347" y="102.608">team</tspan><tspan x="673.347" y="134.608">stat</tspan><tspan x="673.347" y="166.608">season</tspan><tspan x="673.347" y="262.608">team</tspan><tspan x="673.347" y="294.608">stat</tspan><tspan x="673.347" y="326.608">season</tspan><tspan x="659.01" y="422.608">team</tspan><tspan x="659.01" y="454.608">stat</tspan><tspan x="659.01" y="486.608">season</tspan></text>
</g>
<g id="[ { team: &#34;mnu&#34;, stat: 106.5, season: &#34;15/16&#34; }, { team: &#34;chl&#34;, stat: 87.9, season: &#34;15/16&#34; }, { team: &#34;liv&#34;, stat: 94.5, season: &#34;15/16&#34; } ]">
<text fill="#AAA8A8" xml:space="preserve" style="white-space: pre" font-family="JetBrains Mono" font-size="23.91" letter-spacing="0em"><tspan x="959" y="38.6076">[&#10;</tspan><tspan x="959" y="70.6076">  { &#10;</tspan><tspan x="959" y="102.608">    </tspan><tspan x="1073.69" y="102.608">: </tspan><tspan x="1174.05" y="102.608">,&#10;</tspan><tspan x="959" y="134.608">    </tspan><tspan x="1073.69" y="134.608">: </tspan><tspan x="1174.05" y="134.608">,&#10;</tspan><tspan x="959" y="166.608">    </tspan><tspan x="1102.37" y="166.608">: </tspan><tspan x="1231.4" y="166.608"> &#10;</tspan><tspan x="959" y="198.608">  },&#10;</tspan><tspan x="959" y="230.608">  { &#10;</tspan><tspan x="959" y="262.608">    </tspan><tspan x="1073.69" y="262.608">: </tspan><tspan x="1174.05" y="262.608">,&#10;</tspan><tspan x="959" y="294.608">    </tspan><tspan x="1073.69" y="294.608">: </tspan><tspan x="1159.71" y="294.608">,&#10;</tspan><tspan x="959" y="326.608">    </tspan><tspan x="1102.37" y="326.608">: </tspan><tspan x="1231.4" y="326.608"> &#10;</tspan><tspan x="959" y="358.608">  },&#10;</tspan><tspan x="959" y="390.608">  { &#10;</tspan><tspan x="959" y="422.608">   </tspan><tspan x="1059.36" y="422.608">: </tspan><tspan x="1159.71" y="422.608">,&#10;</tspan><tspan x="959" y="454.608">   </tspan><tspan x="1059.36" y="454.608">: </tspan><tspan x="1145.38" y="454.608">,&#10;</tspan><tspan x="959" y="486.608">   </tspan><tspan x="1088.03" y="486.608">: </tspan><tspan x="959" y="518.608">  }&#10;</tspan><tspan x="959" y="550.608">]</tspan></text>
<text fill="#032F62" xml:space="preserve" style="white-space: pre" font-family="JetBrains Mono" font-size="23.91" letter-spacing="0em"><tspan x="1102.37" y="102.608">&#34;mnu&#34;</tspan><tspan x="1131.04" y="166.608">&#34;15/16&#34;</tspan><tspan x="1102.37" y="262.608">&#34;chl&#34;</tspan><tspan x="1131.04" y="326.608">&#34;15/16&#34;</tspan><tspan x="1088.03" y="422.608">&#34;liv&#34;</tspan><tspan x="1116.7" y="486.608">&#34;15/16&#34;&#10;</tspan></text>
<text fill="#005CC5" xml:space="preserve" style="white-space: pre" font-family="JetBrains Mono" font-size="23.91" letter-spacing="0em"><tspan x="1102.37" y="134.608">106.5</tspan><tspan x="1102.37" y="294.608">87.9</tspan><tspan x="1088.03" y="454.608">94.5</tspan></text>
<text fill="#005CC5" xml:space="preserve" style="white-space: pre" font-family="JetBrains Mono" font-size="23.91" letter-spacing="0em"><tspan x="1016.35" y="102.608">team</tspan><tspan x="1016.35" y="134.608">stat</tspan><tspan x="1016.35" y="166.608">season</tspan><tspan x="1016.35" y="262.608">team</tspan><tspan x="1016.35" y="294.608">stat</tspan><tspan x="1016.35" y="326.608">season</tspan><tspan x="1002.01" y="422.608">team</tspan><tspan x="1002.01" y="454.608">stat</tspan><tspan x="1002.01" y="486.608">season</tspan></text>
</g>
<g id="[ { team: &#34;mnu&#34;, stat: 101, season: &#34;15/16&#34; }, { team: &#34;chl&#34;, stat: 87, season: &#34;15/16&#34; }, { team: &#34;liv&#34;, stat: 91, season: &#34;15/16&#34; } ]">
<text fill="#AAA8A8" xml:space="preserve" style="white-space: pre" font-family="JetBrains Mono" font-size="23.91" letter-spacing="0em"><tspan x="1282" y="38.6076">[&#10;</tspan><tspan x="1282" y="70.6076">  { &#10;</tspan><tspan x="1282" y="102.608">    </tspan><tspan x="1396.69" y="102.608">: </tspan><tspan x="1497.05" y="102.608">,&#10;</tspan><tspan x="1282" y="134.608">    </tspan><tspan x="1396.69" y="134.608">: </tspan><tspan x="1468.38" y="134.608">,&#10;</tspan><tspan x="1282" y="166.608">    </tspan><tspan x="1425.37" y="166.608">: </tspan><tspan x="1554.4" y="166.608"> &#10;</tspan><tspan x="1282" y="198.608">  },&#10;</tspan><tspan x="1282" y="230.608">  { &#10;</tspan><tspan x="1282" y="262.608">    </tspan><tspan x="1396.69" y="262.608">: </tspan><tspan x="1497.05" y="262.608">,&#10;</tspan><tspan x="1282" y="294.608">    </tspan><tspan x="1396.69" y="294.608">: </tspan><tspan x="1454.04" y="294.608">,&#10;</tspan><tspan x="1282" y="326.608">    </tspan><tspan x="1425.37" y="326.608">: </tspan><tspan x="1554.4" y="326.608"> &#10;</tspan><tspan x="1282" y="358.608">  },&#10;</tspan><tspan x="1282" y="390.608">  { &#10;</tspan><tspan x="1282" y="422.608">   </tspan><tspan x="1382.36" y="422.608">: </tspan><tspan x="1482.71" y="422.608">,&#10;</tspan><tspan x="1282" y="454.608">   </tspan><tspan x="1382.36" y="454.608">: </tspan><tspan x="1439.7" y="454.608">,&#10;</tspan><tspan x="1282" y="486.608">   </tspan><tspan x="1411.03" y="486.608">: </tspan><tspan x="1282" y="518.608">  }&#10;</tspan><tspan x="1282" y="550.608">]</tspan></text>
<text fill="#032F62" xml:space="preserve" style="white-space: pre" font-family="JetBrains Mono" font-size="23.91" letter-spacing="0em"><tspan x="1425.37" y="102.608">&#34;mnu&#34;</tspan><tspan x="1454.04" y="166.608">&#34;15/16&#34;</tspan><tspan x="1425.37" y="262.608">&#34;chl&#34;</tspan><tspan x="1454.04" y="326.608">&#34;15/16&#34;</tspan><tspan x="1411.03" y="422.608">&#34;liv&#34;</tspan><tspan x="1439.7" y="486.608">&#34;15/16&#34;&#10;</tspan></text>
<text fill="#005CC5" xml:space="preserve" style="white-space: pre" font-family="JetBrains Mono" font-size="23.91" letter-spacing="0em"><tspan x="1425.37" y="134.608">101</tspan><tspan x="1425.37" y="294.608">87</tspan><tspan x="1411.03" y="454.608">91</tspan></text>
<text fill="#005CC5" xml:space="preserve" style="white-space: pre" font-family="JetBrains Mono" font-size="23.91" letter-spacing="0em"><tspan x="1339.35" y="102.608">team</tspan><tspan x="1339.35" y="134.608">stat</tspan><tspan x="1339.35" y="166.608">season</tspan><tspan x="1339.35" y="262.608">team</tspan><tspan x="1339.35" y="294.608">stat</tspan><tspan x="1339.35" y="326.608">season</tspan><tspan x="1325.01" y="422.608">team</tspan><tspan x="1325.01" y="454.608">stat</tspan><tspan x="1325.01" y="486.608">season</tspan></text>
</g>
<path id="Arrow 2" d="M655.707 594.707C656.098 594.317 656.098 593.683 655.707 593.293L649.343 586.929C648.953 586.538 648.319 586.538 647.929 586.929C647.538 587.319 647.538 587.953 647.929 588.343L653.586 594L647.929 599.657C647.538 600.047 647.538 600.681 647.929 601.071C648.319 601.462 648.953 601.462 649.343 601.071L655.707 594.707ZM597 594V595H655V594V593H597V594Z" fill="#DE54DA"/>
<path id="Arrow 6" d="M869 594H914" stroke="#DE54DA" stroke-width="2"/>
<path id="Arrow 4" d="M1023.71 594.707C1024.1 594.317 1024.1 593.683 1023.71 593.293L1017.34 586.929C1016.95 586.538 1016.32 586.538 1015.93 586.929C1015.54 587.319 1015.54 587.953 1015.93 588.343L1021.59 594L1015.93 599.657C1015.54 600.047 1015.54 600.681 1015.93 601.071C1016.32 601.462 1016.95 601.462 1017.34 601.071L1023.71 594.707ZM972 594L972 595L1023 595L1023 594L1023 593L972 593L972 594Z" fill="#DE54DA"/>
<path id="Arrow 5" d="M1385.71 594.707C1386.1 594.317 1386.1 593.683 1385.71 593.293L1379.34 586.929C1378.95 586.538 1378.32 586.538 1377.93 586.929C1377.54 587.319 1377.54 587.953 1377.93 588.343L1383.59 594L1377.93 599.657C1377.54 600.047 1377.54 600.681 1377.93 601.071C1378.32 601.462 1378.95 601.462 1379.34 601.071L1385.71 594.707ZM1266 594V595H1385V594V593H1266V594Z" fill="#DE54DA"/>
<path id="Arrow 3" d="M379.707 594.707C380.098 594.317 380.098 593.683 379.707 593.293L373.343 586.929C372.953 586.538 372.319 586.538 371.929 586.929C371.538 587.319 371.538 587.953 371.929 588.343L377.586 594L371.929 599.657C371.538 600.047 371.538 600.681 371.929 601.071C372.319 601.462 372.953 601.462 373.343 601.071L379.707 594.707ZM238 594V595H379V594V593H238V594Z" fill="#DE54DA"/>
</g>
</svg>
