<svg fill="none" height="610" viewBox="0 0 1569 610" width="1569" xmlns="http://www.w3.org/2000/svg"><path d="m311.5-0v568" stroke="#e3e3e3" stroke-dasharray="8 8"/><path d="m1262.5-0v568" stroke="#e3e3e3" stroke-dasharray="8 8"/><g font-family="JetBrains Mono" letter-spacing="0em"><text fill="#fff" font-size="23.91"><tspan x="898.495" y="285.608">...</tspan></text><text fill="#6a6a6a" font-size="23.91" xml:space="preserve"><tspan x="0" y="38.6076">[ </tspan><tspan x="0" y="70.6076">  {  </tspan><tspan x="0" y="102.608"></tspan><tspan x="114.693" y="102.608">: </tspan><tspan x="215.05" y="102.608">, </tspan><tspan x="0" y="134.608"></tspan><tspan x="114.693" y="134.608">: </tspan><tspan x="186.377" y="134.608">, </tspan><tspan x="0" y="166.608"></tspan><tspan x="143.367" y="166.608">: </tspan><tspan x="272.397" y="166.608"></tspan><tspan x="0" y="198.608">  }, </tspan><tspan x="0" y="230.608">  {  </tspan><tspan x="0" y="262.608"></tspan><tspan x="114.693" y="262.608">: </tspan><tspan x="215.05" y="262.608">, </tspan><tspan x="0" y="294.608"></tspan><tspan x="114.693" y="294.608">: </tspan><tspan x="172.04" y="294.608">, </tspan><tspan x="0" y="326.608"></tspan><tspan x="143.367" y="326.608">: </tspan><tspan x="272.397" y="326.608"></tspan><tspan x="0" y="358.608">  }, </tspan><tspan x="0" y="390.608">  {  </tspan><tspan x="0" y="422.608"></tspan><tspan x="100.357" y="422.608">: </tspan><tspan x="200.713" y="422.608">, </tspan><tspan x="0" y="454.608"></tspan><tspan x="100.357" y="454.608">: </tspan><tspan x="172.04" y="454.608">, </tspan><tspan x="0" y="486.608"></tspan><tspan x="129.03" y="486.608">: </tspan><tspan x="0" y="518.608">  } </tspan><tspan x="0" y="550.608">]</tspan></text><text fill="#9ecbff" font-size="23.91" xml:space="preserve"><tspan x="143.367" y="102.608">"mnu"</tspan><tspan x="172.04" y="166.608">"15/16"</tspan><tspan x="143.367" y="262.608">"chl"</tspan><tspan x="172.04" y="326.608">"15/16"</tspan><tspan x="129.03" y="422.608">"liv"</tspan><tspan x="157.703" y="486.608">"15/16" </tspan></text><text fill="#79b8ff" font-size="23.91"><tspan x="143.367" y="134.608">156</tspan><tspan x="143.367" y="294.608">96</tspan><tspan x="129.03" y="454.608">126</tspan></text><text fill="#fff" font-size="23.91"><tspan x="57.3466" y="102.608">team</tspan><tspan x="57.3466" y="134.608">stat</tspan><tspan x="57.3466" y="166.608">season</tspan><tspan x="57.3466" y="262.608">team</tspan><tspan x="57.3466" y="294.608">stat</tspan><tspan x="57.3466" y="326.608">season</tspan><tspan x="43.01" y="422.608">team</tspan><tspan x="43.01" y="454.608">stat</tspan><tspan x="43.01" y="486.608">season</tspan></text><text fill="#6a6a6a" font-size="23.91" xml:space="preserve"><tspan x="343" y="38.6076">[ </tspan><tspan x="343" y="70.6076">  {  </tspan><tspan x="343" y="102.608"></tspan><tspan x="457.693" y="102.608">: </tspan><tspan x="558.05" y="102.608">, </tspan><tspan x="343" y="134.608"></tspan><tspan x="457.693" y="134.608">: </tspan><tspan x="558.05" y="134.608">, </tspan><tspan x="343" y="166.608"></tspan><tspan x="486.367" y="166.608">: </tspan><tspan x="615.397" y="166.608"></tspan><tspan x="343" y="198.608">  }, </tspan><tspan x="343" y="230.608">  {  </tspan><tspan x="343" y="262.608"></tspan><tspan x="457.693" y="262.608">: </tspan><tspan x="558.05" y="262.608">, </tspan><tspan x="343" y="294.608"></tspan><tspan x="457.693" y="294.608">: </tspan><tspan x="543.713" y="294.608">, </tspan><tspan x="343" y="326.608"></tspan><tspan x="486.367" y="326.608">: </tspan><tspan x="615.397" y="326.608"></tspan><tspan x="343" y="358.608">  }, </tspan><tspan x="343" y="390.608">  {  </tspan><tspan x="343" y="422.608"></tspan><tspan x="443.357" y="422.608">: </tspan><tspan x="543.713" y="422.608">, </tspan><tspan x="343" y="454.608"></tspan><tspan x="443.357" y="454.608">: </tspan><tspan x="543.713" y="454.608">, </tspan><tspan x="343" y="486.608"></tspan><tspan x="472.03" y="486.608">: </tspan><tspan x="343" y="518.608">  } </tspan><tspan x="343" y="550.608">]</tspan></text><text fill="#9ecbff" font-size="23.91" xml:space="preserve"><tspan x="486.367" y="102.608">"mnu"</tspan><tspan x="515.04" y="166.608">"15/16"</tspan><tspan x="486.367" y="262.608">"chl"</tspan><tspan x="515.04" y="326.608">"15/16"</tspan><tspan x="472.03" y="422.608">"liv"</tspan><tspan x="500.703" y="486.608">"15/16" </tspan></text><text fill="#79b8ff" font-size="23.91"><tspan x="486.367" y="134.608">150.5</tspan><tspan x="486.367" y="294.608">91.5</tspan><tspan x="472.03" y="454.608">122.5</tspan></text><text fill="#fff" font-size="23.91"><tspan x="400.347" y="102.608">team</tspan><tspan x="400.347" y="134.608">stat</tspan><tspan x="400.347" y="166.608">season</tspan><tspan x="400.347" y="262.608">team</tspan><tspan x="400.347" y="294.608">stat</tspan><tspan x="400.347" y="326.608">season</tspan><tspan x="386.01" y="422.608">team</tspan><tspan x="386.01" y="454.608">stat</tspan><tspan x="386.01" y="486.608">season</tspan></text><text fill="#6a6a6a" font-size="23.91" xml:space="preserve"><tspan x="616" y="38.6076">[ </tspan><tspan x="616" y="70.6076">  {  </tspan><tspan x="616" y="102.608"></tspan><tspan x="730.693" y="102.608">: </tspan><tspan x="831.05" y="102.608">, </tspan><tspan x="616" y="134.608"></tspan><tspan x="730.693" y="134.608">: </tspan><tspan x="802.377" y="134.608">, </tspan><tspan x="616" y="166.608"></tspan><tspan x="759.367" y="166.608">: </tspan><tspan x="888.397" y="166.608"></tspan><tspan x="616" y="198.608">  }, </tspan><tspan x="616" y="230.608">  {  </tspan><tspan x="616" y="262.608"></tspan><tspan x="730.693" y="262.608">: </tspan><tspan x="831.05" y="262.608">, </tspan><tspan x="616" y="294.608"></tspan><tspan x="730.693" y="294.608">: </tspan><tspan x="816.713" y="294.608">, </tspan><tspan x="616" y="326.608"></tspan><tspan x="759.367" y="326.608">: </tspan><tspan x="888.397" y="326.608"></tspan><tspan x="616" y="358.608">  }, </tspan><tspan x="616" y="390.608">  {  </tspan><tspan x="616" y="422.608"></tspan><tspan x="716.357" y="422.608">: </tspan><tspan x="816.713" y="422.608">, </tspan><tspan x="616" y="454.608"></tspan><tspan x="716.357" y="454.608">: </tspan><tspan x="788.04" y="454.608">, </tspan><tspan x="616" y="486.608"></tspan><tspan x="745.03" y="486.608">: </tspan><tspan x="616" y="518.608">  } </tspan><tspan x="616" y="550.608">]</tspan></text><text fill="#9ecbff" font-size="23.91" xml:space="preserve"><tspan x="759.367" y="102.608">"mnu"</tspan><tspan x="788.04" y="166.608">"15/16"</tspan><tspan x="759.367" y="262.608">"chl"</tspan><tspan x="788.04" y="326.608">"15/16"</tspan><tspan x="745.03" y="422.608">"liv"</tspan><tspan x="773.703" y="486.608">"15/16" </tspan></text><text fill="#79b8ff" font-size="23.91"><tspan x="759.367" y="134.608">145</tspan><tspan x="759.367" y="294.608">94.2</tspan><tspan x="745.03" y="454.608">119</tspan></text><text fill="#fff" font-size="23.91"><tspan x="673.347" y="102.608">team</tspan><tspan x="673.347" y="134.608">stat</tspan><tspan x="673.347" y="166.608">season</tspan><tspan x="673.347" y="262.608">team</tspan><tspan x="673.347" y="294.608">stat</tspan><tspan x="673.347" y="326.608">season</tspan><tspan x="659.01" y="422.608">team</tspan><tspan x="659.01" y="454.608">stat</tspan><tspan x="659.01" y="486.608">season</tspan></text><text fill="#6a6a6a" font-size="23.91" xml:space="preserve"><tspan x="959" y="38.6076">[ </tspan><tspan x="959" y="70.6076">  {  </tspan><tspan x="959" y="102.608"></tspan><tspan x="1073.69" y="102.608">: </tspan><tspan x="1174.05" y="102.608">, </tspan><tspan x="959" y="134.608"></tspan><tspan x="1073.69" y="134.608">: </tspan><tspan x="1174.05" y="134.608">, </tspan><tspan x="959" y="166.608"></tspan><tspan x="1102.37" y="166.608">: </tspan><tspan x="1231.4" y="166.608"></tspan><tspan x="959" y="198.608">  }, </tspan><tspan x="959" y="230.608">  {  </tspan><tspan x="959" y="262.608"></tspan><tspan x="1073.69" y="262.608">: </tspan><tspan x="1174.05" y="262.608">, </tspan><tspan x="959" y="294.608"></tspan><tspan x="1073.69" y="294.608">: </tspan><tspan x="1159.71" y="294.608">, </tspan><tspan x="959" y="326.608"></tspan><tspan x="1102.37" y="326.608">: </tspan><tspan x="1231.4" y="326.608"></tspan><tspan x="959" y="358.608">  }, </tspan><tspan x="959" y="390.608">  {  </tspan><tspan x="959" y="422.608"></tspan><tspan x="1059.36" y="422.608">: </tspan><tspan x="1159.71" y="422.608">, </tspan><tspan x="959" y="454.608"></tspan><tspan x="1059.36" y="454.608">: </tspan><tspan x="1145.38" y="454.608">, </tspan><tspan x="959" y="486.608"></tspan><tspan x="1088.03" y="486.608">: </tspan><tspan x="959" y="518.608">  } </tspan><tspan x="959" y="550.608">]</tspan></text><text fill="#9ecbff" font-size="23.91" xml:space="preserve"><tspan x="1102.37" y="102.608">"mnu"</tspan><tspan x="1131.04" y="166.608">"15/16"</tspan><tspan x="1102.37" y="262.608">"chl"</tspan><tspan x="1131.04" y="326.608">"15/16"</tspan><tspan x="1088.03" y="422.608">"liv"</tspan><tspan x="1116.7" y="486.608">"15/16" </tspan></text><text fill="#79b8ff" font-size="23.91"><tspan x="1102.37" y="134.608">106.5</tspan><tspan x="1102.37" y="294.608">87.9</tspan><tspan x="1088.03" y="454.608">94.5</tspan></text><text fill="#fff" font-size="23.91"><tspan x="1016.35" y="102.608">team</tspan><tspan x="1016.35" y="134.608">stat</tspan><tspan x="1016.35" y="166.608">season</tspan><tspan x="1016.35" y="262.608">team</tspan><tspan x="1016.35" y="294.608">stat</tspan><tspan x="1016.35" y="326.608">season</tspan><tspan x="1002.01" y="422.608">team</tspan><tspan x="1002.01" y="454.608">stat</tspan><tspan x="1002.01" y="486.608">season</tspan></text><text fill="#6a6a6a" font-size="23.91" xml:space="preserve"><tspan x="1282" y="38.6076">[ </tspan><tspan x="1282" y="70.6076">  {  </tspan><tspan x="1282" y="102.608"></tspan><tspan x="1396.69" y="102.608">: </tspan><tspan x="1497.05" y="102.608">, </tspan><tspan x="1282" y="134.608"></tspan><tspan x="1396.69" y="134.608">: </tspan><tspan x="1468.38" y="134.608">, </tspan><tspan x="1282" y="166.608"></tspan><tspan x="1425.37" y="166.608">: </tspan><tspan x="1554.4" y="166.608"></tspan><tspan x="1282" y="198.608">  }, </tspan><tspan x="1282" y="230.608">  {  </tspan><tspan x="1282" y="262.608"></tspan><tspan x="1396.69" y="262.608">: </tspan><tspan x="1497.05" y="262.608">, </tspan><tspan x="1282" y="294.608"></tspan><tspan x="1396.69" y="294.608">: </tspan><tspan x="1454.04" y="294.608">, </tspan><tspan x="1282" y="326.608"></tspan><tspan x="1425.37" y="326.608">: </tspan><tspan x="1554.4" y="326.608"></tspan><tspan x="1282" y="358.608">  }, </tspan><tspan x="1282" y="390.608">  {  </tspan><tspan x="1282" y="422.608"></tspan><tspan x="1382.36" y="422.608">: </tspan><tspan x="1482.71" y="422.608">, </tspan><tspan x="1282" y="454.608"></tspan><tspan x="1382.36" y="454.608">: </tspan><tspan x="1439.7" y="454.608">, </tspan><tspan x="1282" y="486.608"></tspan><tspan x="1411.03" y="486.608">: </tspan><tspan x="1282" y="518.608">  } </tspan><tspan x="1282" y="550.608">]</tspan></text><text fill="#9ecbff" font-size="23.91" xml:space="preserve"><tspan x="1425.37" y="102.608">"mnu"</tspan><tspan x="1454.04" y="166.608">"15/16"</tspan><tspan x="1425.37" y="262.608">"chl"</tspan><tspan x="1454.04" y="326.608">"15/16"</tspan><tspan x="1411.03" y="422.608">"liv"</tspan><tspan x="1439.7" y="486.608">"15/16" </tspan></text><text fill="#79b8ff" font-size="23.91"><tspan x="1425.37" y="134.608">101</tspan><tspan x="1425.37" y="294.608">87</tspan><tspan x="1411.03" y="454.608">91</tspan></text><text fill="#fff" font-size="23.91"><tspan x="1339.35" y="102.608">team</tspan><tspan x="1339.35" y="134.608">stat</tspan><tspan x="1339.35" y="166.608">season</tspan><tspan x="1339.35" y="262.608">team</tspan><tspan x="1339.35" y="294.608">stat</tspan><tspan x="1339.35" y="326.608">season</tspan><tspan x="1325.01" y="422.608">team</tspan><tspan x="1325.01" y="454.608">stat</tspan><tspan x="1325.01" y="486.608">season</tspan></text><text fill="#fff" font-size="24"><tspan x="72.0938" y="602.64">Spend data</tspan></text><text fill="#fff" font-size="23.91"><tspan x="400.96" y="602.608">In-between 1</tspan></text><text fill="#fff" font-size="23.91"><tspan x="673.96" y="602.608">In-between 2</tspan></text><text fill="#fff" font-size="23.91"><tspan x="1002.29" y="602.608">In-between n-1</tspan></text><text fill="#de54da" font-size="23.91"><tspan x="897.495" y="595.608">...</tspan></text><text fill="#fff" font-size="24"><tspan x="1346" y="602.64">Income data</tspan></text></g><path d="m655.707 594.707c.391-.39.391-1.024 0-1.414l-6.364-6.364c-.39-.391-1.024-.391-1.414 0-.391.39-.391 1.024 0 1.414l5.657 5.657-5.657 5.657c-.391.39-.391 1.024 0 1.414.39.391 1.024.391 1.414 0zm-58.707-.707v1h58v-1-1h-58z" fill="#de54da"/><path d="m869 594h25" stroke="#de54da" stroke-width="2"/><path d="m986.707 594.707c.391-.39.391-1.024 0-1.414l-6.364-6.364c-.39-.391-1.024-.391-1.414 0-.391.39-.391 1.024 0 1.414l5.657 5.657-5.657 5.657c-.391.39-.391 1.024 0 1.414.39.391 1.024.391 1.414 0zm-40.707-.707v1h40v-1-1h-40z" fill="#de54da"/><path d="m1324.71 594.707c.39-.39.39-1.024 0-1.414l-6.37-6.364c-.39-.391-1.02-.391-1.41 0-.39.39-.39 1.024 0 1.414l5.66 5.657-5.66 5.657c-.39.39-.39 1.024 0 1.414.39.391 1.02.391 1.41 0zm-99.71-.707v1h99v-1-1h-99z" fill="#de54da"/><path d="m379.707 594.707c.391-.39.391-1.024 0-1.414l-6.364-6.364c-.39-.391-1.024-.391-1.414 0-.391.39-.391 1.024 0 1.414l5.657 5.657-5.657 5.657c-.391.39-.391 1.024 0 1.414.39.391 1.024.391 1.414 0zm-141.707-.707v1h141v-1-1h-141z" fill="#de54da"/></svg>