<svg width="931" height="510" viewBox="0 0 931 510" fill="none" xmlns="http://www.w3.org/2000/svg">
<line x1="911" y1="113" x2="39" y2="113" stroke="#B3B3B3" stroke-width="2" stroke-dasharray="8 8"/>
<line x1="911" y1="401" x2="39" y2="401" stroke="#B3B3B3" stroke-width="2" stroke-dasharray="8 8"/>
<text fill="#005CC5" xml:space="preserve" style="white-space: pre" font-family="JetBrains Mono" font-size="23.91" letter-spacing="0em"><tspan x="57.3167" y="56.6076">Spend data</tspan></text>
<text fill="#2A2934" xml:space="preserve" style="white-space: pre" font-family="JetBrains Mono" font-size="23.91" letter-spacing="0em"><tspan x="57.6334" y="56.6076">Spend data</tspan></text>
<text fill="#2A2934" xml:space="preserve" style="white-space: pre" font-family="JetBrains Mono" font-size="23.91" letter-spacing="0em"><tspan x="28.9601" y="184.608">In-between 1</tspan></text>
<text fill="#2A2934" xml:space="preserve" style="white-space: pre" font-family="JetBrains Mono" font-size="23.91" letter-spacing="0em"><tspan x="0.286758" y="346.608">In-between n-1</tspan></text>
<text fill="#2A2934" xml:space="preserve" style="white-space: pre" font-family="JetBrains Mono" font-size="23.91" letter-spacing="0em"><tspan x="536.495" y="260.608">...</tspan></text>
<text transform="translate(153 234) rotate(90)" fill="#DE54DA" xml:space="preserve" style="white-space: pre" font-family="JetBrains Mono" font-size="23.91" letter-spacing="0em"><tspan x="0.49501" y="24.6076">...</tspan></text>
<text fill="#2A2934" xml:space="preserve" style="white-space: pre" font-family="JetBrains Mono" font-size="23.91" letter-spacing="0em"><tspan x="43.2967" y="463.608">Income data</tspan></text>
<text fill="#AAA8A8" xml:space="preserve" style="white-space: pre" font-family="JetBrains Mono" font-size="23.91" letter-spacing="0em"><tspan x="257" y="24.6076">[{ </tspan><tspan x="357.357" y="24.6076">: </tspan><tspan x="457.713" y="24.6076">, </tspan><tspan x="543.733" y="24.6076">: </tspan><tspan x="615.417" y="24.6076">, </tspan><tspan x="730.11" y="24.6076">: </tspan><tspan x="873.476" y="24.6076">},&#10;</tspan><tspan x="257" y="56.6076"> { </tspan><tspan x="357.357" y="56.6076">: </tspan><tspan x="457.713" y="56.6076">, </tspan><tspan x="543.733" y="56.6076">: </tspan><tspan x="601.08" y="56.6076">,  </tspan><tspan x="730.11" y="56.6076">: </tspan><tspan x="859.14" y="56.6076"> },&#10;</tspan><tspan x="257" y="88.6076"> { </tspan><tspan x="357.357" y="88.6076">: </tspan><tspan x="457.713" y="88.6076">, </tspan><tspan x="543.733" y="88.6076">: </tspan><tspan x="615.417" y="88.6076">, </tspan><tspan x="730.11" y="88.6076">: </tspan><tspan x="873.476" y="88.6076">}]</tspan></text>
<text fill="#032F62" xml:space="preserve" style="white-space: pre" font-family="JetBrains Mono" font-size="23.91" letter-spacing="0em"><tspan x="386.03" y="24.6076">&#34;mnu&#34;</tspan><tspan x="758.783" y="24.6076">&#34;15/16&#34; </tspan><tspan x="386.03" y="56.6076">&#34;chl&#34;</tspan><tspan x="758.783" y="56.6076">&#34;15/16&#34;</tspan><tspan x="386.03" y="88.6076">&#34;liv&#34;</tspan><tspan x="758.783" y="88.6076">&#34;15/16&#34; </tspan></text>
<text fill="#005CC5" xml:space="preserve" style="white-space: pre" font-family="JetBrains Mono" font-size="23.91" letter-spacing="0em"><tspan x="572.407" y="24.6076">156</tspan><tspan x="572.407" y="56.6076">96</tspan><tspan x="572.407" y="88.6076">126</tspan></text>
<text fill="#005CC5" xml:space="preserve" style="white-space: pre" font-family="JetBrains Mono" font-size="23.91" letter-spacing="0em"><tspan x="300.01" y="24.6076">team</tspan><tspan x="486.387" y="24.6076">stat</tspan><tspan x="644.09" y="24.6076">season</tspan><tspan x="300.01" y="56.6076">team</tspan><tspan x="486.387" y="56.6076">stat</tspan><tspan x="644.09" y="56.6076">season</tspan><tspan x="300.01" y="88.6076">team</tspan><tspan x="486.387" y="88.6076">stat</tspan><tspan x="644.09" y="88.6076">season</tspan></text>
<text fill="#AAA8A8" xml:space="preserve" style="white-space: pre" font-family="JetBrains Mono" font-size="23.91" letter-spacing="0em"><tspan x="257" y="148.608">[{ </tspan><tspan x="357.357" y="148.608">: </tspan><tspan x="457.713" y="148.608">, </tspan><tspan x="543.733" y="148.608">: </tspan><tspan x="644.09" y="148.608">, </tspan><tspan x="758.783" y="148.608">: </tspan><tspan x="902.15" y="148.608">},&#10;</tspan><tspan x="257" y="180.608"> { </tspan><tspan x="357.357" y="180.608">: </tspan><tspan x="457.713" y="180.608">, </tspan><tspan x="543.733" y="180.608">: </tspan><tspan x="629.753" y="180.608">,  </tspan><tspan x="758.783" y="180.608">: </tspan><tspan x="887.813" y="180.608"> },&#10;</tspan><tspan x="257" y="212.608"> { </tspan><tspan x="357.357" y="212.608">: </tspan><tspan x="457.713" y="212.608">, </tspan><tspan x="543.733" y="212.608">: </tspan><tspan x="644.09" y="212.608">, </tspan><tspan x="758.783" y="212.608">: </tspan><tspan x="902.15" y="212.608">}]</tspan></text>
<text fill="#032F62" xml:space="preserve" style="white-space: pre" font-family="JetBrains Mono" font-size="23.91" letter-spacing="0em"><tspan x="386.03" y="148.608">&#34;mnu&#34;</tspan><tspan x="787.456" y="148.608">&#34;15/16&#34; </tspan><tspan x="386.03" y="180.608">&#34;chl&#34;</tspan><tspan x="787.456" y="180.608">&#34;15/16&#34;</tspan><tspan x="386.03" y="212.608">&#34;liv&#34;</tspan><tspan x="787.456" y="212.608">&#34;15/16&#34; </tspan></text>
<text fill="#005CC5" xml:space="preserve" style="white-space: pre" font-family="JetBrains Mono" font-size="23.91" letter-spacing="0em"><tspan x="572.407" y="148.608">150.5</tspan><tspan x="572.407" y="180.608">91.5</tspan><tspan x="572.407" y="212.608">122.5</tspan></text>
<text fill="#005CC5" xml:space="preserve" style="white-space: pre" font-family="JetBrains Mono" font-size="23.91" letter-spacing="0em"><tspan x="300.01" y="148.608">team</tspan><tspan x="486.387" y="148.608">stat</tspan><tspan x="672.763" y="148.608">season</tspan><tspan x="300.01" y="180.608">team</tspan><tspan x="486.387" y="180.608">stat</tspan><tspan x="672.763" y="180.608">season</tspan><tspan x="300.01" y="212.608">team</tspan><tspan x="486.387" y="212.608">stat</tspan><tspan x="672.763" y="212.608">season</tspan></text>
<text fill="#AAA8A8" xml:space="preserve" style="white-space: pre" font-family="JetBrains Mono" font-size="23.91" letter-spacing="0em"><tspan x="257" y="314.608">[{ </tspan><tspan x="357.357" y="314.608">: </tspan><tspan x="457.713" y="314.608">, </tspan><tspan x="543.733" y="314.608">: </tspan><tspan x="644.09" y="314.608">, </tspan><tspan x="758.783" y="314.608">: </tspan><tspan x="902.15" y="314.608">},&#10;</tspan><tspan x="257" y="346.608"> { </tspan><tspan x="357.357" y="346.608">: </tspan><tspan x="457.713" y="346.608">, </tspan><tspan x="543.733" y="346.608">: </tspan><tspan x="629.753" y="346.608">,  </tspan><tspan x="758.783" y="346.608">: </tspan><tspan x="887.813" y="346.608"> },&#10;</tspan><tspan x="257" y="378.608"> { </tspan><tspan x="357.357" y="378.608">: </tspan><tspan x="457.713" y="378.608">, </tspan><tspan x="543.733" y="378.608">: </tspan><tspan x="629.753" y="378.608">, </tspan><tspan x="744.446" y="378.608">: </tspan><tspan x="902.15" y="378.608">}]</tspan></text>
<text fill="#032F62" xml:space="preserve" style="white-space: pre" font-family="JetBrains Mono" font-size="23.91" letter-spacing="0em"><tspan x="386.03" y="314.608">&#34;mnu&#34;</tspan><tspan x="787.456" y="314.608">&#34;15/16&#34; </tspan><tspan x="386.03" y="346.608">&#34;chl&#34;</tspan><tspan x="787.456" y="346.608">&#34;15/16&#34;</tspan><tspan x="386.03" y="378.608">&#34;liv&#34;</tspan><tspan x="773.12" y="378.608">&#34;15/16&#34;  </tspan></text>
<text fill="#005CC5" xml:space="preserve" style="white-space: pre" font-family="JetBrains Mono" font-size="23.91" letter-spacing="0em"><tspan x="572.407" y="314.608">106.5</tspan><tspan x="572.407" y="346.608">87.9</tspan><tspan x="572.407" y="378.608">94.5</tspan></text>
<text fill="#005CC5" xml:space="preserve" style="white-space: pre" font-family="JetBrains Mono" font-size="23.91" letter-spacing="0em"><tspan x="300.01" y="314.608">team</tspan><tspan x="486.387" y="314.608">stat</tspan><tspan x="672.763" y="314.608">season</tspan><tspan x="300.01" y="346.608">team</tspan><tspan x="486.387" y="346.608">stat</tspan><tspan x="672.763" y="346.608">season</tspan><tspan x="300.01" y="378.608">team</tspan><tspan x="486.387" y="378.608">stat</tspan><tspan x="658.426" y="378.608">season</tspan></text>
<text fill="#AAA8A8" xml:space="preserve" style="white-space: pre" font-family="JetBrains Mono" font-size="23.91" letter-spacing="0em"><tspan x="257" y="438.608">[{ </tspan><tspan x="357.357" y="438.608">: </tspan><tspan x="457.713" y="438.608">, </tspan><tspan x="543.733" y="438.608">: </tspan><tspan x="615.417" y="438.608">, </tspan><tspan x="730.11" y="438.608">: </tspan><tspan x="873.476" y="438.608">},&#10;</tspan><tspan x="257" y="470.608"> { </tspan><tspan x="357.357" y="470.608">: </tspan><tspan x="457.713" y="470.608">, </tspan><tspan x="543.733" y="470.608">: </tspan><tspan x="601.08" y="470.608">,  </tspan><tspan x="730.11" y="470.608">: </tspan><tspan x="859.14" y="470.608"> },&#10;</tspan><tspan x="257" y="502.608"> { </tspan><tspan x="357.357" y="502.608">: </tspan><tspan x="457.713" y="502.608">, </tspan><tspan x="543.733" y="502.608">: </tspan><tspan x="601.08" y="502.608">, </tspan><tspan x="715.773" y="502.608">: </tspan><tspan x="873.476" y="502.608">}]</tspan></text>
<text fill="#032F62" xml:space="preserve" style="white-space: pre" font-family="JetBrains Mono" font-size="23.91" letter-spacing="0em"><tspan x="386.03" y="438.608">&#34;mnu&#34;</tspan><tspan x="758.783" y="438.608">&#34;15/16&#34; </tspan><tspan x="386.03" y="470.608">&#34;chl&#34;</tspan><tspan x="758.783" y="470.608">&#34;15/16&#34;</tspan><tspan x="386.03" y="502.608">&#34;liv&#34;</tspan><tspan x="744.446" y="502.608">&#34;15/16&#34;  </tspan></text>
<text fill="#005CC5" xml:space="preserve" style="white-space: pre" font-family="JetBrains Mono" font-size="23.91" letter-spacing="0em"><tspan x="572.407" y="438.608">101</tspan><tspan x="572.407" y="470.608">87</tspan><tspan x="572.407" y="502.608">91</tspan></text>
<text fill="#005CC5" xml:space="preserve" style="white-space: pre" font-family="JetBrains Mono" font-size="23.91" letter-spacing="0em"><tspan x="300.01" y="438.608">team</tspan><tspan x="486.387" y="438.608">stat</tspan><tspan x="644.09" y="438.608">season</tspan><tspan x="300.01" y="470.608">team</tspan><tspan x="486.387" y="470.608">stat</tspan><tspan x="644.09" y="470.608">season</tspan><tspan x="300.01" y="502.608">team</tspan><tspan x="486.387" y="502.608">stat</tspan><tspan x="629.753" y="502.608">season</tspan></text>
<path d="M128.293 154.707C128.683 155.098 129.317 155.098 129.707 154.707L136.071 148.343C136.462 147.953 136.462 147.319 136.071 146.929C135.681 146.538 135.047 146.538 134.657 146.929L129 152.586L123.343 146.929C122.953 146.538 122.319 146.538 121.929 146.929C121.538 147.319 121.538 147.953 121.929 148.343L128.293 154.707ZM129 74L128 74L128 154L129 154L130 154L130 74L129 74Z" fill="#DE54DA"/>
<path d="M128.293 434.707C128.683 435.098 129.317 435.098 129.707 434.707L136.071 428.343C136.462 427.953 136.462 427.319 136.071 426.929C135.681 426.538 135.047 426.538 134.657 426.929L129 432.586L123.343 426.929C122.953 426.538 122.319 426.538 121.929 426.929C121.538 427.319 121.538 427.953 121.929 428.343L128.293 434.707ZM129 364L128 364L128 434L129 434L130 434L130 364L129 364Z" fill="#DE54DA"/>
<path d="M128.293 316.707C128.683 317.098 129.317 317.098 129.707 316.707L136.071 310.343C136.462 309.953 136.462 309.319 136.071 308.929C135.681 308.538 135.047 308.538 134.657 308.929L129 314.586L123.343 308.929C122.953 308.538 122.319 308.538 121.929 308.929C121.538 309.319 121.538 309.953 121.929 310.343L128.293 316.707ZM129 281L128 281L128 316L129 316L130 316L130 281L129 281Z" fill="#DE54DA"/>
<path d="M129 202L129 229" stroke="#DE54DA" stroke-width="2"/>
</svg>
