<svg fill="none" height="556" viewBox="0 0 1615 556" width="1615" xmlns="http://www.w3.org/2000/svg"><path d="m318 0v528" stroke="#b3b3b3" stroke-dasharray="8 8" stroke-width="2"/><path d="m1293-0v528" stroke="#b3b3b3" stroke-dasharray="8 8" stroke-width="2"/><g font-family="'Atkinson Hyperlegible Mono',monospace" letter-spacing="0em"><text fill="#2a2934" font-size="24"><tspan x="74.3594" y="549.62">Spend data</tspan></text><text fill="#2a2934" font-size="23.91"><tspan x="401.714" y="549.591">In-between 1</tspan></text><text fill="#2a2934" font-size="23.91"><tspan x="674.714" y="549.591">In-between 2</tspan></text><text fill="#2a2934" font-size="23.91"><tspan x="1033.5" y="549.591">In-between n-1</tspan></text><text fill="#2a2934" font-size="23.91"><tspan x="937.339" y="282.591">...</tspan></text><text fill="#de54da" font-size="23.91"><tspan x="921.339" y="544.591">...</tspan></text><text fill="#2a2934" font-size="24"><tspan x="1380" y="549.62">Income data</tspan></text><text fill="#032f62" font-size="23.91" xml:space="preserve"><tspan x="151.072" y="91.5914">"mnu"</tspan><tspan x="181.286" y="147.591">"15/16"</tspan><tspan x="151.072" y="231.591">"chl"</tspan><tspan x="181.286" y="287.591">"15/16"</tspan><tspan x="151.072" y="371.591">"liv"</tspan><tspan x="181.286" y="427.591">"15/16" </tspan></text><text fill="#005cc5" font-size="23.91"><tspan x="60.4288" y="91.5914">team</tspan><tspan x="60.4288" y="119.591">stat</tspan><tspan x="151.072" y="119.591">156</tspan><tspan x="60.4288" y="147.591">season</tspan><tspan x="60.4288" y="231.591">team</tspan><tspan x="60.4288" y="259.591">stat</tspan><tspan x="151.072" y="259.591">96</tspan><tspan x="60.4288" y="287.591">season</tspan><tspan x="60.4288" y="371.591">team</tspan><tspan x="60.4288" y="399.591">stat</tspan><tspan x="151.072" y="399.591">126</tspan><tspan x="60.4288" y="427.591">season</tspan></text><text fill="#aaa8a8" font-size="23.91" xml:space="preserve"><tspan x="0" y="35.5914">[ </tspan><tspan x="0" y="63.5914">  {  </tspan><tspan x="0" y="91.5914"></tspan><tspan x="120.858" y="91.5914">: </tspan><tspan x="226.608" y="91.5914">, </tspan><tspan x="0" y="119.591"></tspan><tspan x="120.858" y="119.591">: </tspan><tspan x="196.394" y="119.591">, </tspan><tspan x="0" y="147.591"></tspan><tspan x="151.072" y="147.591">: </tspan><tspan x="287.037" y="147.591"></tspan><tspan x="0" y="175.591">  }, </tspan><tspan x="0" y="203.591">  {  </tspan><tspan x="0" y="231.591"></tspan><tspan x="120.858" y="231.591">: </tspan><tspan x="226.608" y="231.591">, </tspan><tspan x="0" y="259.591"></tspan><tspan x="120.858" y="259.591">: </tspan><tspan x="181.286" y="259.591">, </tspan><tspan x="0" y="287.591"></tspan><tspan x="151.072" y="287.591">: </tspan><tspan x="287.037" y="287.591"></tspan><tspan x="0" y="315.591">  }, </tspan><tspan x="0" y="343.591">  {  </tspan><tspan x="0" y="371.591"></tspan><tspan x="120.858" y="371.591">: </tspan><tspan x="226.608" y="371.591">, </tspan><tspan x="0" y="399.591"></tspan><tspan x="120.858" y="399.591">: </tspan><tspan x="196.394" y="399.591">, </tspan><tspan x="0" y="427.591"></tspan><tspan x="151.072" y="427.591">: </tspan><tspan x="0" y="455.591">  } </tspan><tspan x="0" y="483.591">]</tspan></text><text fill="#032f62" font-size="23.91" xml:space="preserve"><tspan x="484.072" y="91.5914">"mnu"</tspan><tspan x="514.286" y="147.591">"15/16"</tspan><tspan x="484.072" y="231.591">"chl"</tspan><tspan x="514.286" y="287.591">"15/16"</tspan><tspan x="484.072" y="371.591">"liv"</tspan><tspan x="514.286" y="427.591">"15/16" </tspan></text><text fill="#005cc5" font-size="23.91"><tspan x="393.429" y="91.5914">team</tspan><tspan x="393.429" y="119.591">stat</tspan><tspan x="484.072" y="119.591">150.5</tspan><tspan x="393.429" y="147.591">season</tspan><tspan x="393.429" y="231.591">team</tspan><tspan x="393.429" y="259.591">stat</tspan><tspan x="484.072" y="259.591">91.5</tspan><tspan x="393.429" y="287.591">season</tspan><tspan x="393.429" y="371.591">team</tspan><tspan x="393.429" y="399.591">stat</tspan><tspan x="484.072" y="399.591">122.5</tspan><tspan x="393.429" y="427.591">season</tspan></text><text fill="#aaa8a8" font-size="23.91" xml:space="preserve"><tspan x="333" y="35.5914">[ </tspan><tspan x="333" y="63.5914">  {  </tspan><tspan x="333" y="91.5914"></tspan><tspan x="453.858" y="91.5914">: </tspan><tspan x="559.608" y="91.5914">, </tspan><tspan x="333" y="119.591"></tspan><tspan x="453.858" y="119.591">: </tspan><tspan x="559.608" y="119.591">, </tspan><tspan x="333" y="147.591"></tspan><tspan x="484.072" y="147.591">: </tspan><tspan x="620.037" y="147.591"></tspan><tspan x="333" y="175.591">  }, </tspan><tspan x="333" y="203.591">  {  </tspan><tspan x="333" y="231.591"></tspan><tspan x="453.858" y="231.591">: </tspan><tspan x="559.608" y="231.591">, </tspan><tspan x="333" y="259.591"></tspan><tspan x="453.858" y="259.591">: </tspan><tspan x="544.501" y="259.591">, </tspan><tspan x="333" y="287.591"></tspan><tspan x="484.072" y="287.591">: </tspan><tspan x="620.037" y="287.591"></tspan><tspan x="333" y="315.591">  }, </tspan><tspan x="333" y="343.591">  {  </tspan><tspan x="333" y="371.591"></tspan><tspan x="453.858" y="371.591">: </tspan><tspan x="559.608" y="371.591">, </tspan><tspan x="333" y="399.591"></tspan><tspan x="453.858" y="399.591">: </tspan><tspan x="559.608" y="399.591">, </tspan><tspan x="333" y="427.591"></tspan><tspan x="484.072" y="427.591">: </tspan><tspan x="333" y="455.591">  } </tspan><tspan x="333" y="483.591">]</tspan></text><text fill="#032f62" font-size="23.91" xml:space="preserve"><tspan x="777.072" y="91.5914">"mnu"</tspan><tspan x="807.286" y="147.591">"15/16"</tspan><tspan x="777.072" y="231.591">"chl"</tspan><tspan x="807.286" y="287.591">"15/16"</tspan><tspan x="777.072" y="371.591">"liv"</tspan><tspan x="807.286" y="427.591">"15/16" </tspan></text><text fill="#005cc5" font-size="23.91"><tspan x="686.429" y="91.5914">team</tspan><tspan x="686.429" y="119.591">stat</tspan><tspan x="777.072" y="119.591">145</tspan><tspan x="686.429" y="147.591">season</tspan><tspan x="686.429" y="231.591">team</tspan><tspan x="686.429" y="259.591">stat</tspan><tspan x="777.072" y="259.591">94.2</tspan><tspan x="686.429" y="287.591">season</tspan><tspan x="686.429" y="371.591">team</tspan><tspan x="686.429" y="399.591">stat</tspan><tspan x="777.072" y="399.591">119</tspan><tspan x="686.429" y="427.591">season</tspan></text><text fill="#aaa8a8" font-size="23.91" xml:space="preserve"><tspan x="626" y="35.5914">[ </tspan><tspan x="626" y="63.5914">  {  </tspan><tspan x="626" y="91.5914"></tspan><tspan x="746.858" y="91.5914">: </tspan><tspan x="852.608" y="91.5914">, </tspan><tspan x="626" y="119.591"></tspan><tspan x="746.858" y="119.591">: </tspan><tspan x="822.394" y="119.591">, </tspan><tspan x="626" y="147.591"></tspan><tspan x="777.072" y="147.591">: </tspan><tspan x="913.037" y="147.591"></tspan><tspan x="626" y="175.591">  }, </tspan><tspan x="626" y="203.591">  {  </tspan><tspan x="626" y="231.591"></tspan><tspan x="746.858" y="231.591">: </tspan><tspan x="852.608" y="231.591">, </tspan><tspan x="626" y="259.591"></tspan><tspan x="746.858" y="259.591">: </tspan><tspan x="837.501" y="259.591">, </tspan><tspan x="626" y="287.591"></tspan><tspan x="777.072" y="287.591">: </tspan><tspan x="913.037" y="287.591"></tspan><tspan x="626" y="315.591">  }, </tspan><tspan x="626" y="343.591">  {  </tspan><tspan x="626" y="371.591"></tspan><tspan x="746.858" y="371.591">: </tspan><tspan x="852.608" y="371.591">, </tspan><tspan x="626" y="399.591"></tspan><tspan x="746.858" y="399.591">: </tspan><tspan x="822.394" y="399.591">, </tspan><tspan x="626" y="427.591"></tspan><tspan x="777.072" y="427.591">: </tspan><tspan x="626" y="455.591">  } </tspan><tspan x="626" y="483.591">]</tspan></text><text fill="#032f62" font-size="23.91" xml:space="preserve"><tspan x="1130.07" y="91.5914">"mnu"</tspan><tspan x="1160.29" y="147.591">"15/16"</tspan><tspan x="1130.07" y="231.591">"chl"</tspan><tspan x="1160.29" y="287.591">"15/16"</tspan><tspan x="1130.07" y="371.591">"liv"</tspan><tspan x="1160.29" y="427.591">"15/16" </tspan></text><text fill="#005cc5" font-size="23.91"><tspan x="1039.43" y="91.5914">team</tspan><tspan x="1039.43" y="119.591">stat</tspan><tspan x="1130.07" y="119.591">106.5</tspan><tspan x="1039.43" y="147.591">season</tspan><tspan x="1039.43" y="231.591">team</tspan><tspan x="1039.43" y="259.591">stat</tspan><tspan x="1130.07" y="259.591">87.9</tspan><tspan x="1039.43" y="287.591">season</tspan><tspan x="1039.43" y="371.591">team</tspan><tspan x="1039.43" y="399.591">stat</tspan><tspan x="1130.07" y="399.591">94.5</tspan><tspan x="1039.43" y="427.591">season</tspan></text><text fill="#aaa8a8" font-size="23.91" xml:space="preserve"><tspan x="979" y="35.5914">[ </tspan><tspan x="979" y="63.5914">  {  </tspan><tspan x="979" y="91.5914"></tspan><tspan x="1099.86" y="91.5914">: </tspan><tspan x="1205.61" y="91.5914">, </tspan><tspan x="979" y="119.591"></tspan><tspan x="1099.86" y="119.591">: </tspan><tspan x="1205.61" y="119.591">, </tspan><tspan x="979" y="147.591"></tspan><tspan x="1130.07" y="147.591">: </tspan><tspan x="1266.04" y="147.591"></tspan><tspan x="979" y="175.591">  }, </tspan><tspan x="979" y="203.591">  {  </tspan><tspan x="979" y="231.591"></tspan><tspan x="1099.86" y="231.591">: </tspan><tspan x="1205.61" y="231.591">, </tspan><tspan x="979" y="259.591"></tspan><tspan x="1099.86" y="259.591">: </tspan><tspan x="1190.5" y="259.591">, </tspan><tspan x="979" y="287.591"></tspan><tspan x="1130.07" y="287.591">: </tspan><tspan x="1266.04" y="287.591"></tspan><tspan x="979" y="315.591">  }, </tspan><tspan x="979" y="343.591">  {  </tspan><tspan x="979" y="371.591"></tspan><tspan x="1099.86" y="371.591">: </tspan><tspan x="1205.61" y="371.591">, </tspan><tspan x="979" y="399.591"></tspan><tspan x="1099.86" y="399.591">: </tspan><tspan x="1190.5" y="399.591">, </tspan><tspan x="979" y="427.591"></tspan><tspan x="1130.07" y="427.591">: </tspan><tspan x="979" y="455.591">  } </tspan><tspan x="979" y="483.591">]</tspan></text><text fill="#032f62" font-size="23.91" xml:space="preserve"><tspan x="1463.07" y="91.5914">"mnu"</tspan><tspan x="1493.29" y="147.591">"15/16"</tspan><tspan x="1463.07" y="231.591">"chl"</tspan><tspan x="1493.29" y="287.591">"15/16"</tspan><tspan x="1463.07" y="371.591">"liv"</tspan><tspan x="1493.29" y="427.591">"15/16" </tspan></text><text fill="#005cc5" font-size="23.91"><tspan x="1372.43" y="91.5914">team</tspan><tspan x="1372.43" y="119.591">stat</tspan><tspan x="1463.07" y="119.591">101</tspan><tspan x="1372.43" y="147.591">season</tspan><tspan x="1372.43" y="231.591">team</tspan><tspan x="1372.43" y="259.591">stat</tspan><tspan x="1463.07" y="259.591">87</tspan><tspan x="1372.43" y="287.591">season</tspan><tspan x="1372.43" y="371.591">team</tspan><tspan x="1372.43" y="399.591">stat</tspan><tspan x="1463.07" y="399.591">91</tspan><tspan x="1372.43" y="427.591">season</tspan></text><text fill="#aaa8a8" font-size="23.91" xml:space="preserve"><tspan x="1312" y="35.5914">[ </tspan><tspan x="1312" y="63.5914">  {  </tspan><tspan x="1312" y="91.5914"></tspan><tspan x="1432.86" y="91.5914">: </tspan><tspan x="1538.61" y="91.5914">, </tspan><tspan x="1312" y="119.591"></tspan><tspan x="1432.86" y="119.591">: </tspan><tspan x="1508.39" y="119.591">, </tspan><tspan x="1312" y="147.591"></tspan><tspan x="1463.07" y="147.591">: </tspan><tspan x="1599.04" y="147.591"></tspan><tspan x="1312" y="175.591">  }, </tspan><tspan x="1312" y="203.591">  {  </tspan><tspan x="1312" y="231.591"></tspan><tspan x="1432.86" y="231.591">: </tspan><tspan x="1538.61" y="231.591">, </tspan><tspan x="1312" y="259.591"></tspan><tspan x="1432.86" y="259.591">: </tspan><tspan x="1493.29" y="259.591">, </tspan><tspan x="1312" y="287.591"></tspan><tspan x="1463.07" y="287.591">: </tspan><tspan x="1599.04" y="287.591"></tspan><tspan x="1312" y="315.591">  }, </tspan><tspan x="1312" y="343.591">  {  </tspan><tspan x="1312" y="371.591"></tspan><tspan x="1432.86" y="371.591">: </tspan><tspan x="1538.61" y="371.591">, </tspan><tspan x="1312" y="399.591"></tspan><tspan x="1432.86" y="399.591">: </tspan><tspan x="1493.29" y="399.591">, </tspan><tspan x="1312" y="427.591"></tspan><tspan x="1463.07" y="427.591">: </tspan><tspan x="1312" y="455.591">  } </tspan><tspan x="1312" y="483.591">]</tspan></text></g><path d="m661.707 544.707c.391-.39.391-1.024 0-1.414l-6.364-6.364c-.39-.391-1.024-.391-1.414 0-.391.39-.391 1.024 0 1.414l5.657 5.657-5.657 5.657c-.391.39-.391 1.024 0 1.414.39.391 1.024.391 1.414 0zm-58.707-.707v1h58v-1-1h-58z" fill="#de54da"/><path d="m869 544h43" stroke="#de54da" stroke-width="2"/><path d="m1015.71 544.707c.39-.39.39-1.024 0-1.414l-6.37-6.364c-.39-.391-1.02-.391-1.41 0-.39.39-.39 1.024 0 1.414l5.66 5.657-5.66 5.657c-.39.39-.39 1.024 0 1.414.39.391 1.02.391 1.41 0zm-40.71-.707v1h40v-1-1h-40z" fill="#de54da"/><path d="m1363.71 543.707c.39-.39.39-1.024 0-1.414l-6.37-6.364c-.39-.391-1.02-.391-1.41 0-.39.39-.39 1.024 0 1.414l5.66 5.657-5.66 5.657c-.39.39-.39 1.024 0 1.414.39.391 1.02.391 1.41 0zm-99.71-.707v1h99v-1-1h-99z" fill="#de54da"/><path d="m384.707 543.707c.391-.39.391-1.024 0-1.414l-6.364-6.364c-.39-.391-1.024-.391-1.414 0-.391.39-.391 1.024 0 1.414l5.657 5.657-5.657 5.657c-.391.39-.391 1.024 0 1.414.39.391 1.024.391 1.414 0zm-141.707-.707v1h141v-1-1h-141z" fill="#de54da"/></svg>
