<svg width="43" height="44" viewBox="0 0 43 44" fill="none" xmlns="http://www.w3.org/2000/svg">
<g clip-path="url(#clip0_910_343)">
<path d="M16.124 24.632C16.124 25.592 15.94 26.396 15.572 27.044C15.212 27.692 14.688 28.18 14 28.508C13.32 28.836 12.496 29 11.528 29H9.116V20.432H11.78C12.668 20.432 13.436 20.592 14.084 20.912C14.732 21.232 15.232 21.704 15.584 22.328C15.944 22.944 16.124 23.712 16.124 24.632ZM14.516 24.68C14.516 24 14.412 23.44 14.204 23C13.996 22.56 13.688 22.236 13.28 22.028C12.872 21.812 12.372 21.704 11.78 21.704H10.652V27.716H11.576C12.568 27.716 13.304 27.464 13.784 26.96C14.272 26.448 14.516 25.688 14.516 24.68Z" fill="#7C7C8B"/>
<rect x="1" y="-11" width="41" height="49" rx="4" stroke="#A8A8B3" stroke-width="2"/>
</g>
<rect x="1" y="1" width="41" height="42" rx="4" stroke="#A8A8B3" stroke-width="2"/>
<defs>
<clipPath id="clip0_910_343">
<rect width="43" height="44" rx="5" fill="white"/>
</clipPath>
</defs>
</svg>
