<svg width="87" height="44" viewBox="0 0 87 44" fill="none" xmlns="http://www.w3.org/2000/svg">
<g clip-path="url(#clip0_867_362)">
<path d="M13.988 29H9.116V20.432H13.988V21.716H10.652V23.9H13.772V25.184H10.652V27.704H13.988V29ZM19.1434 22.376C19.8714 22.376 20.4394 22.564 20.8474 22.94C21.2634 23.316 21.4714 23.924 21.4714 24.764V29H19.9594V25.064C19.9594 24.576 19.8634 24.212 19.6714 23.972C19.4794 23.724 19.1754 23.6 18.7594 23.6C18.1514 23.6 17.7354 23.792 17.5114 24.176C17.2874 24.552 17.1754 25.1 17.1754 25.82V29H15.6634V22.496H16.8274L17.0434 23.348H17.1274C17.2714 23.124 17.4474 22.94 17.6554 22.796C17.8634 22.652 18.0954 22.548 18.3514 22.484C18.6074 22.412 18.8714 22.376 19.1434 22.376ZM25.8826 27.908C26.0746 27.908 26.2586 27.892 26.4346 27.86C26.6106 27.82 26.7746 27.776 26.9266 27.728V28.856C26.7666 28.928 26.5586 28.988 26.3026 29.036C26.0466 29.092 25.7786 29.12 25.4986 29.12C25.1306 29.12 24.7946 29.06 24.4906 28.94C24.1946 28.812 23.9546 28.596 23.7706 28.292C23.5946 27.988 23.5066 27.564 23.5066 27.02V23.636H22.6306V22.976L23.5906 22.448L24.0706 21.068H25.0186V22.496H26.8666V23.636H25.0186V27.008C25.0186 27.312 25.0986 27.54 25.2586 27.692C25.4186 27.836 25.6266 27.908 25.8826 27.908ZM30.8536 22.376C31.4376 22.376 31.9376 22.496 32.3536 22.736C32.7776 22.968 33.1056 23.304 33.3376 23.744C33.5696 24.176 33.6856 24.704 33.6856 25.328V26.096H29.3896C29.4056 26.688 29.5696 27.148 29.8816 27.476C30.1936 27.796 30.6256 27.956 31.1776 27.956C31.6016 27.956 31.9776 27.916 32.3056 27.836C32.6416 27.748 32.9856 27.624 33.3376 27.464V28.676C33.0176 28.828 32.6856 28.94 32.3416 29.012C31.9976 29.084 31.5856 29.12 31.1056 29.12C30.4736 29.12 29.9096 29 29.4136 28.76C28.9256 28.512 28.5416 28.14 28.2616 27.644C27.9896 27.148 27.8536 26.532 27.8536 25.796C27.8536 25.052 27.9776 24.428 28.2256 23.924C28.4816 23.412 28.8336 23.028 29.2816 22.772C29.7296 22.508 30.2536 22.376 30.8536 22.376ZM30.8536 23.492C30.4536 23.492 30.1256 23.624 29.8696 23.888C29.6216 24.144 29.4736 24.528 29.4256 25.04H32.2216C32.2216 24.736 32.1696 24.468 32.0656 24.236C31.9696 24.004 31.8216 23.824 31.6216 23.696C31.4216 23.56 31.1656 23.492 30.8536 23.492ZM38.6183 22.376C38.7143 22.376 38.8263 22.38 38.9543 22.388C39.0823 22.396 39.1903 22.412 39.2783 22.436L39.1463 23.84C39.0743 23.824 38.9783 23.812 38.8583 23.804C38.7463 23.788 38.6463 23.78 38.5583 23.78C38.3183 23.78 38.0863 23.82 37.8623 23.9C37.6463 23.972 37.4503 24.084 37.2743 24.236C37.1063 24.38 36.9703 24.568 36.8663 24.8C36.7703 25.032 36.7223 25.308 36.7223 25.628V29H35.2103V22.496H36.3743L36.5903 23.624H36.6623C36.7903 23.392 36.9503 23.184 37.1423 23C37.3343 22.808 37.5543 22.656 37.8023 22.544C38.0583 22.432 38.3303 22.376 38.6183 22.376Z" fill="#7C7C8B"/>
<rect x="1" y="-11" width="85" height="49" rx="4" stroke="#A8A8B3" stroke-width="2"/>
</g>
<rect x="1" y="1" width="85" height="42" rx="4" stroke="#A8A8B3" stroke-width="2"/>
<defs>
<clipPath id="clip0_867_362">
<rect width="87" height="44" rx="5" fill="white"/>
</clipPath>
</defs>
</svg>
