<svg width="104" height="44" viewBox="0 0 104 44" fill="none" xmlns="http://www.w3.org/2000/svg">
<g clip-path="url(#clip0_867_357)">
<path d="M11.696 20.432C12.44 20.432 13.064 20.504 13.568 20.648C14.072 20.784 14.448 21.008 14.696 21.32C14.952 21.632 15.08 22.052 15.08 22.58C15.08 22.908 15.024 23.204 14.912 23.468C14.8 23.732 14.636 23.948 14.42 24.116C14.212 24.284 13.952 24.396 13.64 24.452V24.512C13.96 24.568 14.244 24.672 14.492 24.824C14.748 24.968 14.948 25.18 15.092 25.46C15.244 25.732 15.32 26.092 15.32 26.54C15.32 27.06 15.196 27.504 14.948 27.872C14.7 28.24 14.344 28.52 13.88 28.712C13.424 28.904 12.88 29 12.248 29H9.116V20.432H11.696ZM11.9 23.924C12.508 23.924 12.924 23.828 13.148 23.636C13.38 23.444 13.496 23.16 13.496 22.784C13.496 22.4 13.36 22.124 13.088 21.956C12.816 21.788 12.38 21.704 11.78 21.704H10.652V23.924H11.9ZM10.652 25.16V27.716H12.044C12.668 27.716 13.1 27.596 13.34 27.356C13.588 27.116 13.712 26.796 13.712 26.396C13.712 26.14 13.66 25.92 13.556 25.736C13.452 25.552 13.272 25.412 13.016 25.316C12.76 25.212 12.412 25.16 11.972 25.16H10.652ZM19.5328 22.376C20.3728 22.376 21.0088 22.56 21.4408 22.928C21.8808 23.288 22.1008 23.856 22.1008 24.632V29H21.0328L20.7328 28.1H20.6848C20.5008 28.332 20.3088 28.528 20.1088 28.688C19.9168 28.84 19.6928 28.948 19.4368 29.012C19.1888 29.084 18.8848 29.12 18.5248 29.12C18.1408 29.12 17.7928 29.048 17.4808 28.904C17.1768 28.76 16.9368 28.54 16.7607 28.244C16.5848 27.94 16.4968 27.56 16.4968 27.104C16.4968 26.432 16.7408 25.928 17.2288 25.592C17.7248 25.248 18.4728 25.06 19.4728 25.028L20.6008 24.992V24.668C20.6008 24.252 20.5008 23.956 20.3008 23.78C20.1008 23.604 19.8208 23.516 19.4608 23.516C19.1328 23.516 18.8168 23.564 18.5128 23.66C18.2088 23.756 17.9128 23.868 17.6248 23.996L17.1448 22.94C17.4648 22.772 17.8288 22.636 18.2368 22.532C18.6528 22.428 19.0848 22.376 19.5328 22.376ZM19.8088 25.952C19.1448 25.976 18.6848 26.092 18.4288 26.3C18.1728 26.5 18.0448 26.772 18.0448 27.116C18.0448 27.42 18.1368 27.64 18.3208 27.776C18.5048 27.912 18.7408 27.98 19.0288 27.98C19.4688 27.98 19.8408 27.856 20.1448 27.608C20.4488 27.352 20.6008 26.976 20.6008 26.48V25.928L19.8088 25.952ZM26.6234 29.12C26.0074 29.12 25.4714 29.004 25.0154 28.772C24.5674 28.532 24.2194 28.168 23.9714 27.68C23.7314 27.184 23.6114 26.552 23.6114 25.784C23.6114 24.984 23.7434 24.336 24.0074 23.84C24.2794 23.336 24.6514 22.968 25.1234 22.736C25.5954 22.496 26.1354 22.376 26.7434 22.376C27.1514 22.376 27.5154 22.416 27.8354 22.496C28.1554 22.576 28.4274 22.672 28.6514 22.784L28.2074 23.972C27.9594 23.876 27.7114 23.796 27.4634 23.732C27.2154 23.66 26.9754 23.624 26.7434 23.624C26.3834 23.624 26.0834 23.704 25.8434 23.864C25.6114 24.024 25.4394 24.264 25.3274 24.584C25.2154 24.896 25.1594 25.292 25.1594 25.772C25.1594 26.236 25.2154 26.624 25.3274 26.936C25.4474 27.248 25.6234 27.484 25.8554 27.644C26.0874 27.796 26.3754 27.872 26.7194 27.872C27.0874 27.872 27.4114 27.828 27.6914 27.74C27.9714 27.652 28.2354 27.532 28.4834 27.38V28.688C28.2354 28.84 27.9674 28.948 27.6794 29.012C27.3994 29.084 27.0474 29.12 26.6234 29.12ZM31.5072 24.212C31.5072 24.42 31.4992 24.64 31.4832 24.872C31.4672 25.096 31.4512 25.316 31.4352 25.532H31.4712C31.5352 25.436 31.6112 25.332 31.6992 25.22C31.7872 25.1 31.8752 24.984 31.9632 24.872C32.0592 24.752 32.1512 24.644 32.2392 24.548L34.1592 22.496H35.8752L33.2712 25.304L36.0432 29H34.2792L32.2632 26.216L31.5072 26.84V29H30.0072V19.88H31.5072V24.212ZM41.4898 27.116C41.4898 27.548 41.3858 27.916 41.1778 28.22C40.9698 28.516 40.6618 28.74 40.2538 28.892C39.8538 29.044 39.3618 29.12 38.7778 29.12C38.3218 29.12 37.9298 29.088 37.6018 29.024C37.2738 28.96 36.9618 28.86 36.6658 28.724V27.44C36.9858 27.592 37.3418 27.72 37.7338 27.824C38.1258 27.928 38.4898 27.98 38.8258 27.98C39.2418 27.98 39.5418 27.916 39.7258 27.788C39.9098 27.66 40.0018 27.488 40.0018 27.272C40.0018 27.144 39.9658 27.028 39.8938 26.924C39.8218 26.82 39.6818 26.712 39.4738 26.6C39.2658 26.48 38.9498 26.332 38.5258 26.156C38.1098 25.988 37.7618 25.82 37.4818 25.652C37.2098 25.484 37.0018 25.284 36.8578 25.052C36.7218 24.812 36.6538 24.512 36.6538 24.152C36.6538 23.568 36.8858 23.128 37.3498 22.832C37.8138 22.528 38.4258 22.376 39.1858 22.376C39.5858 22.376 39.9618 22.416 40.3138 22.496C40.6738 22.568 41.0338 22.688 41.3938 22.856L40.9138 23.972C40.7138 23.884 40.5138 23.808 40.3138 23.744C40.1218 23.672 39.9258 23.616 39.7258 23.576C39.5338 23.536 39.3378 23.516 39.1378 23.516C38.8098 23.516 38.5618 23.568 38.3938 23.672C38.2258 23.768 38.1418 23.904 38.1418 24.08C38.1418 24.216 38.1818 24.336 38.2618 24.44C38.3498 24.536 38.4978 24.636 38.7058 24.74C38.9218 24.836 39.2258 24.964 39.6178 25.124C40.0098 25.276 40.3418 25.436 40.6138 25.604C40.8938 25.764 41.1098 25.964 41.2618 26.204C41.4138 26.444 41.4898 26.748 41.4898 27.116ZM46.3647 22.376C47.1247 22.376 47.7367 22.66 48.2007 23.228C48.6647 23.788 48.8967 24.624 48.8967 25.736C48.8967 26.472 48.7887 27.092 48.5727 27.596C48.3567 28.1 48.0567 28.48 47.6727 28.736C47.2887 28.992 46.8407 29.12 46.3287 29.12C46.0167 29.12 45.7407 29.08 45.5007 29C45.2607 28.912 45.0567 28.804 44.8887 28.676C44.7207 28.54 44.5767 28.396 44.4567 28.244H44.3607C44.3927 28.388 44.4167 28.552 44.4327 28.736C44.4487 28.912 44.4567 29.08 44.4567 29.24V31.88H42.9447V22.496H44.1687L44.3847 23.36H44.4567C44.5767 23.176 44.7207 23.012 44.8887 22.868C45.0647 22.716 45.2727 22.596 45.5127 22.508C45.7607 22.42 46.0447 22.376 46.3647 22.376ZM45.9327 23.6C45.5807 23.6 45.2967 23.672 45.0807 23.816C44.8647 23.952 44.7087 24.164 44.6127 24.452C44.5167 24.74 44.4647 25.1 44.4567 25.532V25.724C44.4567 26.188 44.5007 26.58 44.5887 26.9C44.6847 27.22 44.8407 27.464 45.0567 27.632C45.2807 27.8 45.5807 27.884 45.9567 27.884C46.2767 27.884 46.5367 27.796 46.7367 27.62C46.9447 27.444 47.0967 27.196 47.1927 26.876C47.2967 26.548 47.3487 26.16 47.3487 25.712C47.3487 25.04 47.2327 24.52 47.0007 24.152C46.7767 23.784 46.4207 23.6 45.9327 23.6ZM53.0484 22.376C53.8884 22.376 54.5244 22.56 54.9564 22.928C55.3964 23.288 55.6164 23.856 55.6164 24.632V29H54.5484L54.2484 28.1H54.2004C54.0164 28.332 53.8244 28.528 53.6244 28.688C53.4324 28.84 53.2084 28.948 52.9524 29.012C52.7044 29.084 52.4004 29.12 52.0404 29.12C51.6564 29.12 51.3084 29.048 50.9964 28.904C50.6924 28.76 50.4524 28.54 50.2764 28.244C50.1004 27.94 50.0124 27.56 50.0124 27.104C50.0124 26.432 50.2564 25.928 50.7444 25.592C51.2404 25.248 51.9884 25.06 52.9884 25.028L54.1164 24.992V24.668C54.1164 24.252 54.0164 23.956 53.8164 23.78C53.6164 23.604 53.3364 23.516 52.9764 23.516C52.6484 23.516 52.3324 23.564 52.0284 23.66C51.7244 23.756 51.4284 23.868 51.1404 23.996L50.6604 22.94C50.9804 22.772 51.3444 22.636 51.7524 22.532C52.1684 22.428 52.6004 22.376 53.0484 22.376ZM53.3244 25.952C52.6604 25.976 52.2004 26.092 51.9444 26.3C51.6884 26.5 51.5604 26.772 51.5604 27.116C51.5604 27.42 51.6524 27.64 51.8364 27.776C52.0204 27.912 52.2564 27.98 52.5444 27.98C52.9844 27.98 53.3564 27.856 53.6604 27.608C53.9644 27.352 54.1164 26.976 54.1164 26.48V25.928L53.3244 25.952ZM60.1391 29.12C59.5231 29.12 58.9871 29.004 58.5311 28.772C58.0831 28.532 57.7351 28.168 57.4871 27.68C57.2471 27.184 57.1271 26.552 57.1271 25.784C57.1271 24.984 57.2591 24.336 57.5231 23.84C57.7951 23.336 58.1671 22.968 58.6391 22.736C59.1111 22.496 59.6511 22.376 60.2591 22.376C60.6671 22.376 61.0311 22.416 61.3511 22.496C61.6711 22.576 61.9431 22.672 62.1671 22.784L61.7231 23.972C61.4751 23.876 61.2271 23.796 60.9791 23.732C60.7311 23.66 60.4911 23.624 60.2591 23.624C59.8991 23.624 59.5991 23.704 59.3591 23.864C59.1271 24.024 58.9551 24.264 58.8431 24.584C58.7311 24.896 58.6751 25.292 58.6751 25.772C58.6751 26.236 58.7311 26.624 58.8431 26.936C58.9631 27.248 59.1391 27.484 59.3711 27.644C59.6031 27.796 59.8911 27.872 60.2351 27.872C60.6031 27.872 60.9271 27.828 61.2071 27.74C61.4871 27.652 61.7511 27.532 61.9991 27.38V28.688C61.7511 28.84 61.4831 28.948 61.1951 29.012C60.9151 29.084 60.5631 29.12 60.1391 29.12ZM66.1388 22.376C66.7228 22.376 67.2228 22.496 67.6388 22.736C68.0628 22.968 68.3908 23.304 68.6228 23.744C68.8548 24.176 68.9708 24.704 68.9708 25.328V26.096H64.6748C64.6908 26.688 64.8548 27.148 65.1668 27.476C65.4788 27.796 65.9108 27.956 66.4628 27.956C66.8868 27.956 67.2628 27.916 67.5908 27.836C67.9268 27.748 68.2708 27.624 68.6228 27.464V28.676C68.3028 28.828 67.9708 28.94 67.6268 29.012C67.2828 29.084 66.8708 29.12 66.3908 29.12C65.7588 29.12 65.1948 29 64.6988 28.76C64.2108 28.512 63.8268 28.14 63.5468 27.644C63.2748 27.148 63.1388 26.532 63.1388 25.796C63.1388 25.052 63.2628 24.428 63.5108 23.924C63.7668 23.412 64.1188 23.028 64.5668 22.772C65.0148 22.508 65.5388 22.376 66.1388 22.376ZM66.1388 23.492C65.7388 23.492 65.4108 23.624 65.1548 23.888C64.9068 24.144 64.7588 24.528 64.7108 25.04H67.5068C67.5068 24.736 67.4548 24.468 67.3508 24.236C67.2548 24.004 67.1068 23.824 66.9068 23.696C66.7068 23.56 66.4508 23.492 66.1388 23.492Z" fill="#7C7C8B"/>
<rect x="1" y="-11" width="113" height="49" rx="4" stroke="#A8A8B3" stroke-width="2"/>
</g>
<rect x="1" y="1" width="102" height="42" rx="4" stroke="#A8A8B3" stroke-width="2"/>
<defs>
<clipPath id="clip0_867_357">
<rect width="104" height="44" rx="5" fill="white"/>
</clipPath>
</defs>
</svg>
